<svg width="32" height="32" viewBox="0 0 32 32" xmlns="http://www.w3.org/2000/svg">
    <path
        d="M15.9704 25.9999C16.8963 25.9999 17.6469 25.2493 17.6469 24.3234C17.6469 23.3976 16.8963 22.647 15.9704 22.647C15.0445 22.647 14.2939 23.3976 14.2939 24.3234C14.2939 25.2493 15.0445 25.9999 15.9704 25.9999Z" />
    <path
        d="M17.0882 7.00001H15.4117C14.7509 6.99854 14.0962 7.12762 13.4853 7.37985C12.8745 7.63208 12.3194 8.00249 11.8521 8.46981C11.3848 8.93713 11.0144 9.49215 10.7622 10.103C10.5099 10.7139 10.3809 11.3685 10.3823 12.0294V12.5882H12.6176V12.0294C12.6176 11.2884 12.912 10.5777 13.436 10.0537C13.96 9.52969 14.6707 9.23531 15.4117 9.23531H17.0882C17.8293 9.23531 18.54 9.52969 19.064 10.0537C19.588 10.5777 19.8823 11.2884 19.8823 12.0294C19.8823 12.7705 19.588 13.4812 19.064 14.0052C18.54 14.5292 17.8293 14.8235 17.0882 14.8235H14.8529V19.853H17.0882V17.0588C18.4221 17.0588 19.7014 16.529 20.6446 15.5858C21.5877 14.6426 22.1176 13.3633 22.1176 12.0294C22.1176 10.6955 21.5877 9.41629 20.6446 8.47309C19.7014 7.5299 18.4221 7.00001 17.0882 7.00001V7.00001Z" />
</svg>