<svg width="923" height="690" viewBox="0 0 923 690" fill="none" xmlns="http://www.w3.org/2000/svg">
<path d="M336.056 291.417V351.695H348.972V364.611H361.889V394.75H387.722V420.583H409.25H413.556V394.75H482.445V420.583H508.278V394.75H534.111V364.611H547.028V351.695H559.945V287.111H534.111V304.333V308.639H503.972V287.111H486.75V261.278H460.917V287.111H430.778V261.278H404.945V287.111H387.722V308.639H361.889V287.111H336.056V291.417Z" fill="#8967AA"/>
<path d="M387.722 420.583H361.889V446.417H387.722V420.583Z" fill="#8967AA"/>
<path d="M534.111 420.583H508.277V446.417H534.111V420.583Z" fill="#8967AA"/>
<path d="M416.892 334.472H401.392V360.306H416.892V334.472Z" fill="black" stroke="black" stroke-width="8.61111" stroke-linecap="round" stroke-linejoin="round"/>
<path d="M387.722 394.75H361.889V368.917" stroke="black" stroke-width="8.61111" stroke-linecap="round" stroke-linejoin="round"/>
<path d="M390.232 308.639V287.111H404.945" stroke="black" stroke-width="8.61111" stroke-linecap="round" stroke-linejoin="round"/>
<path d="M502.715 308.639V287.111H488.007" stroke="black" stroke-width="8.61111" stroke-linecap="round" stroke-linejoin="round"/>
<path d="M348.972 351.694H336.056V287.111H361.889V351.694" stroke="black" stroke-width="8.61111" stroke-linecap="round" stroke-linejoin="round"/>
<path d="M534.111 351.694V287.111H559.945V351.694H547.028" stroke="black" stroke-width="8.61111" stroke-linecap="round" stroke-linejoin="round"/>
<path d="M404.944 287.111V261.278H430.778V287.111" stroke="black" stroke-width="8.61111" stroke-linecap="round" stroke-linejoin="round"/>
<path d="M460.917 287.111V261.278H486.75V287.111" stroke="black" stroke-width="8.61111" stroke-linecap="round" stroke-linejoin="round"/>
<path d="M361.889 351.694H374.806V364.611H348.973V351.694" stroke="black" stroke-width="8.61111" stroke-linecap="round" stroke-linejoin="round"/>
<path d="M547.028 351.694V364.611H521.194V351.694H534.111" stroke="black" stroke-width="8.61111" stroke-linecap="round" stroke-linejoin="round"/>
<path d="M387.722 420.583H361.889V446.417H387.722V420.583Z" stroke="black" stroke-width="8.61111" stroke-linecap="round" stroke-linejoin="round"/>
<path d="M534.111 420.583H508.277V446.417H534.111V420.583Z" stroke="black" stroke-width="8.61111" stroke-linecap="round" stroke-linejoin="round"/>
<path d="M413.556 394.75V420.583H387.723V394.75" stroke="black" stroke-width="8.61111" stroke-linecap="round" stroke-linejoin="round"/>
<path d="M508.277 394.75H534.111V368.917" stroke="black" stroke-width="8.61111" stroke-linecap="round" stroke-linejoin="round"/>
<path d="M482.444 394.75V420.583H508.278V394.75" stroke="black" stroke-width="8.61111" stroke-linecap="round" stroke-linejoin="round"/>
<path d="M495.468 334.472H479.968V360.306H495.468V334.472Z" fill="black" stroke="black" stroke-width="8.61111" stroke-linecap="round" stroke-linejoin="round"/>
<path d="M413.556 394.75H482.445" stroke="black" stroke-width="8.61111" stroke-linecap="round" stroke-linejoin="round"/>
<path d="M430.777 287.111H460.916" stroke="black" stroke-width="8.61111" stroke-linecap="round" stroke-linejoin="round"/>
<path d="M361.889 308.639H387.722" stroke="black" stroke-width="8.61111" stroke-linecap="round" stroke-linejoin="round"/>
<path d="M503.973 308.639H534.112" stroke="black" stroke-width="8.61111" stroke-linecap="round" stroke-linejoin="round"/>
</svg>
