<svg width="100" height="100" viewBox="0 0 100 100" fill="none" xmlns="http://www.w3.org/2000/svg">
<path d="M33.333 6.06055H30.3027V9.09085H33.333V6.06055Z" fill="black"/>
<path d="M39.3936 6.06055H36.3633V9.09085H39.3936V6.06055Z" fill="black"/>
<path d="M42.4239 6.06055H39.3936V9.09085H42.4239V6.06055Z" fill="black"/>
<path d="M45.4541 6.06055H42.4238V9.09085H45.4541V6.06055Z" fill="black"/>
<path d="M48.4844 6.06055H45.4541V9.09085H48.4844V6.06055Z" fill="black"/>
<path d="M63.6367 6.06055H60.6064V9.09085H63.6367V6.06055Z" fill="black"/>
<path d="M66.667 6.06055H63.6367V9.09085H66.667V6.06055Z" fill="black"/>
<path d="M69.6973 6.06055H66.667V9.09085H69.6973V6.06055Z" fill="black"/>
<path d="M33.333 9.09082H30.3027V12.1211H33.333V9.09082Z" fill="black"/>
<path d="M45.4541 9.09082H42.4238V12.1211H45.4541V9.09082Z" fill="black"/>
<path d="M48.4844 9.09082H45.4541V12.1211H48.4844V9.09082Z" fill="black"/>
<path d="M69.6973 9.09082H66.667V12.1211H69.6973V9.09082Z" fill="black"/>
<path d="M42.4239 12.1211H39.3936V15.1514H42.4239V12.1211Z" fill="black"/>
<path d="M45.4541 12.1211H42.4238V15.1514H45.4541V12.1211Z" fill="black"/>
<path d="M48.4844 12.1211H45.4541V15.1514H48.4844V12.1211Z" fill="black"/>
<path d="M51.5147 12.1211H48.4844V15.1514H51.5147V12.1211Z" fill="black"/>
<path d="M63.6367 12.1211H60.6064V15.1514H63.6367V12.1211Z" fill="black"/>
<path d="M69.6973 12.1211H66.667V15.1514H69.6973V12.1211Z" fill="black"/>
<path d="M33.333 15.1515H30.3027V18.1818H33.333V15.1515Z" fill="black"/>
<path d="M36.3633 15.1515H33.333V18.1818H36.3633V15.1515Z" fill="black"/>
<path d="M39.3936 15.1515H36.3633V18.1818H39.3936V15.1515Z" fill="black"/>
<path d="M45.4541 15.1515H42.4238V18.1818H45.4541V15.1515Z" fill="black"/>
<path d="M60.6065 15.1515H57.5762V18.1818H60.6065V15.1515Z" fill="black"/>
<path d="M66.667 15.1515H63.6367V18.1818H66.667V15.1515Z" fill="black"/>
<path d="M36.3633 18.1818H33.333V21.2121H36.3633V18.1818Z" fill="black"/>
<path d="M39.3936 18.1818H36.3633V21.2121H39.3936V18.1818Z" fill="black"/>
<path d="M45.4541 18.1818H42.4238V21.2121H45.4541V18.1818Z" fill="black"/>
<path d="M48.4844 18.1818H45.4541V21.2121H48.4844V18.1818Z" fill="black"/>
<path d="M51.5147 18.1818H48.4844V21.2121H51.5147V18.1818Z" fill="black"/>
<path d="M54.545 18.1818H51.5146V21.2121H54.545V18.1818Z" fill="black"/>
<path d="M57.5752 18.1818H54.5449V21.2121H57.5752V18.1818Z" fill="black"/>
<path d="M66.667 18.1818H63.6367V21.2121H66.667V18.1818Z" fill="black"/>
<path d="M69.6973 18.1818H66.667V21.2121H69.6973V18.1818Z" fill="black"/>
<path d="M39.3936 21.212H36.3633V24.2423H39.3936V21.212Z" fill="black"/>
<path d="M51.5147 21.212H48.4844V24.2423H51.5147V21.212Z" fill="black"/>
<path d="M57.5752 21.212H54.5449V24.2423H57.5752V21.212Z" fill="black"/>
<path d="M60.6065 21.212H57.5762V24.2423H60.6065V21.212Z" fill="black"/>
<path d="M63.6367 21.212H60.6064V24.2423H63.6367V21.212Z" fill="black"/>
<path d="M66.667 21.212H63.6367V24.2423H66.667V21.212Z" fill="black"/>
<path d="M69.6973 21.212H66.667V24.2423H69.6973V21.212Z" fill="black"/>
<path d="M33.333 24.2423H30.3027V27.2726H33.333V24.2423Z" fill="black"/>
<path d="M39.3936 24.2423H36.3633V27.2726H39.3936V24.2423Z" fill="black"/>
<path d="M45.4541 24.2423H42.4238V27.2726H45.4541V24.2423Z" fill="black"/>
<path d="M51.5147 24.2423H48.4844V27.2726H51.5147V24.2423Z" fill="black"/>
<path d="M57.5752 24.2423H54.5449V27.2726H57.5752V24.2423Z" fill="black"/>
<path d="M63.6367 24.2423H60.6064V27.2726H63.6367V24.2423Z" fill="black"/>
<path d="M69.6973 24.2423H66.667V27.2726H69.6973V24.2423Z" fill="black"/>
<path d="M33.333 27.2727H30.3027V30.303H33.333V27.2727Z" fill="black"/>
<path d="M36.3633 27.2727H33.333V30.303H36.3633V27.2727Z" fill="black"/>
<path d="M48.4844 27.2727H45.4541V30.303H48.4844V27.2727Z" fill="black"/>
<path d="M51.5147 27.2727H48.4844V30.303H51.5147V27.2727Z" fill="black"/>
<path d="M60.6065 27.2727H57.5762V30.303H60.6065V27.2727Z" fill="black"/>
<path d="M63.6367 27.2727H60.6064V30.303H63.6367V27.2727Z" fill="black"/>
<path d="M9.09085 30.303H6.06055V33.3333H9.09085V30.303Z" fill="black"/>
<path d="M15.1514 30.303H12.1211V33.3333H15.1514V30.303Z" fill="black"/>
<path d="M18.1817 30.303H15.1514V33.3333H18.1817V30.303Z" fill="black"/>
<path d="M24.2422 30.303H21.2119V33.3333H24.2422V30.303Z" fill="black"/>
<path d="M27.2725 30.303H24.2422V33.3333H27.2725V30.303Z" fill="black"/>
<path d="M30.3028 30.303H27.2725V33.3333H30.3028V30.303Z" fill="black"/>
<path d="M42.4239 30.303H39.3936V33.3333H42.4239V30.303Z" fill="black"/>
<path d="M45.4541 30.303H42.4238V33.3333H45.4541V30.303Z" fill="black"/>
<path d="M48.4844 30.303H45.4541V33.3333H48.4844V30.303Z" fill="black"/>
<path d="M51.5147 30.303H48.4844V33.3333H51.5147V30.303Z" fill="black"/>
<path d="M54.545 30.303H51.5146V33.3333H54.545V30.303Z" fill="black"/>
<path d="M57.5752 30.303H54.5449V33.3333H57.5752V30.303Z" fill="black"/>
<path d="M60.6065 30.303H57.5762V33.3333H60.6065V30.303Z" fill="black"/>
<path d="M63.6367 30.303H60.6064V33.3333H63.6367V30.303Z" fill="black"/>
<path d="M75.7578 30.303H72.7275V33.3333H75.7578V30.303Z" fill="black"/>
<path d="M84.8487 30.303H81.8184V33.3333H84.8487V30.303Z" fill="black"/>
<path d="M90.9092 30.303H87.8789V33.3333H90.9092V30.303Z" fill="black"/>
<path d="M93.9395 30.303H90.9092V33.3333H93.9395V30.303Z" fill="black"/>
<path d="M12.1211 33.3333H9.09082V36.3636H12.1211V33.3333Z" fill="black"/>
<path d="M15.1514 33.3333H12.1211V36.3636H15.1514V33.3333Z" fill="black"/>
<path d="M18.1817 33.3333H15.1514V36.3636H18.1817V33.3333Z" fill="black"/>
<path d="M21.2119 33.3333H18.1816V36.3636H21.2119V33.3333Z" fill="black"/>
<path d="M30.3028 33.3333H27.2725V36.3636H30.3028V33.3333Z" fill="black"/>
<path d="M33.333 33.3333H30.3027V36.3636H33.333V33.3333Z" fill="black"/>
<path d="M36.3633 33.3333H33.333V36.3636H36.3633V33.3333Z" fill="black"/>
<path d="M39.3936 33.3333H36.3633V36.3636H39.3936V33.3333Z" fill="black"/>
<path d="M42.4239 33.3333H39.3936V36.3636H42.4239V33.3333Z" fill="black"/>
<path d="M45.4541 33.3333H42.4238V36.3636H45.4541V33.3333Z" fill="black"/>
<path d="M57.5752 33.3333H54.5449V36.3636H57.5752V33.3333Z" fill="black"/>
<path d="M60.6065 33.3333H57.5762V36.3636H60.6065V33.3333Z" fill="black"/>
<path d="M63.6367 33.3333H60.6064V36.3636H63.6367V33.3333Z" fill="black"/>
<path d="M66.667 33.3333H63.6367V36.3636H66.667V33.3333Z" fill="black"/>
<path d="M69.6973 33.3333H66.667V36.3636H69.6973V33.3333Z" fill="black"/>
<path d="M72.7276 33.3333H69.6973V36.3636H72.7276V33.3333Z" fill="black"/>
<path d="M75.7578 33.3333H72.7275V36.3636H75.7578V33.3333Z" fill="black"/>
<path d="M78.7881 33.3333H75.7578V36.3636H78.7881V33.3333Z" fill="black"/>
<path d="M81.8184 33.3333H78.7881V36.3636H81.8184V33.3333Z" fill="black"/>
<path d="M93.9395 33.3333H90.9092V36.3636H93.9395V33.3333Z" fill="black"/>
<path d="M9.09085 36.3635H6.06055V39.3938H9.09085V36.3635Z" fill="black"/>
<path d="M15.1514 36.3635H12.1211V39.3938H15.1514V36.3635Z" fill="black"/>
<path d="M21.2119 36.3635H18.1816V39.3938H21.2119V36.3635Z" fill="black"/>
<path d="M24.2422 36.3635H21.2119V39.3938H24.2422V36.3635Z" fill="black"/>
<path d="M27.2725 36.3635H24.2422V39.3938H27.2725V36.3635Z" fill="black"/>
<path d="M36.3633 36.3635H33.333V39.3938H36.3633V36.3635Z" fill="black"/>
<path d="M51.5147 36.3635H48.4844V39.3938H51.5147V36.3635Z" fill="black"/>
<path d="M57.5752 36.3635H54.5449V39.3938H57.5752V36.3635Z" fill="black"/>
<path d="M60.6065 36.3635H57.5762V39.3938H60.6065V36.3635Z" fill="black"/>
<path d="M63.6367 36.3635H60.6064V39.3938H63.6367V36.3635Z" fill="black"/>
<path d="M75.7578 36.3635H72.7275V39.3938H75.7578V36.3635Z" fill="black"/>
<path d="M78.7881 36.3635H75.7578V39.3938H78.7881V36.3635Z" fill="black"/>
<path d="M81.8184 36.3635H78.7881V39.3938H81.8184V36.3635Z" fill="black"/>
<path d="M87.8789 36.3635H84.8486V39.3938H87.8789V36.3635Z" fill="black"/>
<path d="M90.9092 36.3635H87.8789V39.3938H90.9092V36.3635Z" fill="black"/>
<path d="M9.09085 39.3939H6.06055V42.4242H9.09085V39.3939Z" fill="black"/>
<path d="M15.1514 39.3939H12.1211V42.4242H15.1514V39.3939Z" fill="black"/>
<path d="M21.2119 39.3939H18.1816V42.4242H21.2119V39.3939Z" fill="black"/>
<path d="M30.3028 39.3939H27.2725V42.4242H30.3028V39.3939Z" fill="black"/>
<path d="M39.3936 39.3939H36.3633V42.4242H39.3936V39.3939Z" fill="black"/>
<path d="M42.4239 39.3939H39.3936V42.4242H42.4239V39.3939Z" fill="black"/>
<path d="M45.4541 39.3939H42.4238V42.4242H45.4541V39.3939Z" fill="black"/>
<path d="M48.4844 39.3939H45.4541V42.4242H48.4844V39.3939Z" fill="black"/>
<path d="M51.5147 39.3939H48.4844V42.4242H51.5147V39.3939Z" fill="black"/>
<path d="M63.6367 39.3939H60.6064V42.4242H63.6367V39.3939Z" fill="black"/>
<path d="M66.667 39.3939H63.6367V42.4242H66.667V39.3939Z" fill="black"/>
<path d="M72.7276 39.3939H69.6973V42.4242H72.7276V39.3939Z" fill="black"/>
<path d="M75.7578 39.3939H72.7275V42.4242H75.7578V39.3939Z" fill="black"/>
<path d="M78.7881 39.3939H75.7578V42.4242H78.7881V39.3939Z" fill="black"/>
<path d="M81.8184 39.3939H78.7881V42.4242H81.8184V39.3939Z" fill="black"/>
<path d="M93.9395 39.3939H90.9092V42.4242H93.9395V39.3939Z" fill="black"/>
<path d="M12.1211 42.4242H9.09082V45.4545H12.1211V42.4242Z" fill="black"/>
<path d="M24.2422 42.4242H21.2119V45.4545H24.2422V42.4242Z" fill="black"/>
<path d="M27.2725 42.4242H24.2422V45.4545H27.2725V42.4242Z" fill="black"/>
<path d="M30.3028 42.4242H27.2725V45.4545H30.3028V42.4242Z" fill="black"/>
<path d="M33.333 42.4242H30.3027V45.4545H33.333V42.4242Z" fill="black"/>
<path d="M39.3936 42.4242H36.3633V45.4545H39.3936V42.4242Z" fill="black"/>
<path d="M45.4541 42.4242H42.4238V45.4545H45.4541V42.4242Z" fill="black"/>
<path d="M54.545 42.4242H51.5146V45.4545H54.545V42.4242Z" fill="black"/>
<path d="M60.6065 42.4242H57.5762V45.4545H60.6065V42.4242Z" fill="black"/>
<path d="M63.6367 42.4242H60.6064V45.4545H63.6367V42.4242Z" fill="black"/>
<path d="M84.8487 42.4242H81.8184V45.4545H84.8487V42.4242Z" fill="black"/>
<path d="M87.8789 42.4242H84.8486V45.4545H87.8789V42.4242Z" fill="black"/>
<path d="M9.09085 45.4545H6.06055V48.4848H9.09085V45.4545Z" fill="black"/>
<path d="M18.1817 45.4545H15.1514V48.4848H18.1817V45.4545Z" fill="black"/>
<path d="M33.333 45.4545H30.3027V48.4848H33.333V45.4545Z" fill="black"/>
<path d="M39.3936 45.4545H36.3633V48.4848H39.3936V45.4545Z" fill="black"/>
<path d="M48.4844 45.4545H45.4541V48.4848H48.4844V45.4545Z" fill="black"/>
<path d="M54.545 45.4545H51.5146V48.4848H54.545V45.4545Z" fill="black"/>
<path d="M57.5752 45.4545H54.5449V48.4848H57.5752V45.4545Z" fill="black"/>
<path d="M66.667 45.4545H63.6367V48.4848H66.667V45.4545Z" fill="black"/>
<path d="M75.7578 45.4545H72.7275V48.4848H75.7578V45.4545Z" fill="black"/>
<path d="M78.7881 45.4545H75.7578V48.4848H78.7881V45.4545Z" fill="black"/>
<path d="M87.8789 45.4545H84.8486V48.4848H87.8789V45.4545Z" fill="black"/>
<path d="M90.9092 45.4545H87.8789V48.4848H90.9092V45.4545Z" fill="black"/>
<path d="M93.9395 45.4545H90.9092V48.4848H93.9395V45.4545Z" fill="black"/>
<path d="M9.09085 48.4847H6.06055V51.515H9.09085V48.4847Z" fill="black"/>
<path d="M15.1514 48.4847H12.1211V51.515H15.1514V48.4847Z" fill="black"/>
<path d="M18.1817 48.4847H15.1514V51.515H18.1817V48.4847Z" fill="black"/>
<path d="M27.2725 48.4847H24.2422V51.515H27.2725V48.4847Z" fill="black"/>
<path d="M36.3633 48.4847H33.333V51.515H36.3633V48.4847Z" fill="black"/>
<path d="M45.4541 48.4847H42.4238V51.515H45.4541V48.4847Z" fill="black"/>
<path d="M51.5147 48.4847H48.4844V51.515H51.5147V48.4847Z" fill="black"/>
<path d="M60.6065 48.4847H57.5762V51.515H60.6065V48.4847Z" fill="black"/>
<path d="M63.6367 48.4847H60.6064V51.515H63.6367V48.4847Z" fill="black"/>
<path d="M66.667 48.4847H63.6367V51.515H66.667V48.4847Z" fill="black"/>
<path d="M72.7276 48.4847H69.6973V51.515H72.7276V48.4847Z" fill="black"/>
<path d="M78.7881 48.4847H75.7578V51.515H78.7881V48.4847Z" fill="black"/>
<path d="M81.8184 48.4847H78.7881V51.515H81.8184V48.4847Z" fill="black"/>
<path d="M87.8789 48.4847H84.8486V51.515H87.8789V48.4847Z" fill="black"/>
<path d="M90.9092 48.4847H87.8789V51.515H90.9092V48.4847Z" fill="black"/>
<path d="M93.9395 48.4847H90.9092V51.515H93.9395V48.4847Z" fill="black"/>
<path d="M12.1211 51.5151H9.09082V54.5454H12.1211V51.5151Z" fill="black"/>
<path d="M18.1817 51.5151H15.1514V54.5454H18.1817V51.5151Z" fill="black"/>
<path d="M21.2119 51.5151H18.1816V54.5454H21.2119V51.5151Z" fill="black"/>
<path d="M24.2422 51.5151H21.2119V54.5454H24.2422V51.5151Z" fill="black"/>
<path d="M30.3028 51.5151H27.2725V54.5454H30.3028V51.5151Z" fill="black"/>
<path d="M33.333 51.5151H30.3027V54.5454H33.333V51.5151Z" fill="black"/>
<path d="M36.3633 51.5151H33.333V54.5454H36.3633V51.5151Z" fill="black"/>
<path d="M39.3936 51.5151H36.3633V54.5454H39.3936V51.5151Z" fill="black"/>
<path d="M48.4844 51.5151H45.4541V54.5454H48.4844V51.5151Z" fill="black"/>
<path d="M57.5752 51.5151H54.5449V54.5454H57.5752V51.5151Z" fill="black"/>
<path d="M66.667 51.5151H63.6367V54.5454H66.667V51.5151Z" fill="black"/>
<path d="M72.7276 51.5151H69.6973V54.5454H72.7276V51.5151Z" fill="black"/>
<path d="M75.7578 51.5151H72.7275V54.5454H75.7578V51.5151Z" fill="black"/>
<path d="M78.7881 51.5151H75.7578V54.5454H78.7881V51.5151Z" fill="black"/>
<path d="M81.8184 51.5151H78.7881V54.5454H81.8184V51.5151Z" fill="black"/>
<path d="M90.9092 51.5151H87.8789V54.5454H90.9092V51.5151Z" fill="black"/>
<path d="M15.1514 54.5454H12.1211V57.5757H15.1514V54.5454Z" fill="black"/>
<path d="M18.1817 54.5454H15.1514V57.5757H18.1817V54.5454Z" fill="black"/>
<path d="M24.2422 54.5454H21.2119V57.5757H24.2422V54.5454Z" fill="black"/>
<path d="M27.2725 54.5454H24.2422V57.5757H27.2725V54.5454Z" fill="black"/>
<path d="M30.3028 54.5454H27.2725V57.5757H30.3028V54.5454Z" fill="black"/>
<path d="M33.333 54.5454H30.3027V57.5757H33.333V54.5454Z" fill="black"/>
<path d="M39.3936 54.5454H36.3633V57.5757H39.3936V54.5454Z" fill="black"/>
<path d="M57.5752 54.5454H54.5449V57.5757H57.5752V54.5454Z" fill="black"/>
<path d="M63.6367 54.5454H60.6064V57.5757H63.6367V54.5454Z" fill="black"/>
<path d="M72.7276 54.5454H69.6973V57.5757H72.7276V54.5454Z" fill="black"/>
<path d="M81.8184 54.5454H78.7881V57.5757H81.8184V54.5454Z" fill="black"/>
<path d="M84.8487 54.5454H81.8184V57.5757H84.8487V54.5454Z" fill="black"/>
<path d="M90.9092 54.5454H87.8789V57.5757H90.9092V54.5454Z" fill="black"/>
<path d="M15.1514 57.5757H12.1211V60.606H15.1514V57.5757Z" fill="black"/>
<path d="M21.2119 57.5757H18.1816V60.606H21.2119V57.5757Z" fill="black"/>
<path d="M42.4239 57.5757H39.3936V60.606H42.4239V57.5757Z" fill="black"/>
<path d="M48.4844 57.5757H45.4541V60.606H48.4844V57.5757Z" fill="black"/>
<path d="M54.545 57.5757H51.5146V60.606H54.545V57.5757Z" fill="black"/>
<path d="M60.6065 57.5757H57.5762V60.606H60.6065V57.5757Z" fill="black"/>
<path d="M69.6973 57.5757H66.667V60.606H69.6973V57.5757Z" fill="black"/>
<path d="M72.7276 57.5757H69.6973V60.606H72.7276V57.5757Z" fill="black"/>
<path d="M78.7881 57.5757H75.7578V60.606H78.7881V57.5757Z" fill="black"/>
<path d="M84.8487 57.5757H81.8184V60.606H84.8487V57.5757Z" fill="black"/>
<path d="M87.8789 57.5757H84.8486V60.606H87.8789V57.5757Z" fill="black"/>
<path d="M90.9092 57.5757H87.8789V60.606H90.9092V57.5757Z" fill="black"/>
<path d="M9.09085 60.606H6.06055V63.6363H9.09085V60.606Z" fill="black"/>
<path d="M15.1514 60.606H12.1211V63.6363H15.1514V60.606Z" fill="black"/>
<path d="M24.2422 60.606H21.2119V63.6363H24.2422V60.606Z" fill="black"/>
<path d="M27.2725 60.606H24.2422V63.6363H27.2725V60.606Z" fill="black"/>
<path d="M36.3633 60.606H33.333V63.6363H36.3633V60.606Z" fill="black"/>
<path d="M45.4541 60.606H42.4238V63.6363H45.4541V60.606Z" fill="black"/>
<path d="M54.545 60.606H51.5146V63.6363H54.545V60.606Z" fill="black"/>
<path d="M69.6973 60.606H66.667V63.6363H69.6973V60.606Z" fill="black"/>
<path d="M72.7276 60.606H69.6973V63.6363H72.7276V60.606Z" fill="black"/>
<path d="M78.7881 60.606H75.7578V63.6363H78.7881V60.606Z" fill="black"/>
<path d="M87.8789 60.606H84.8486V63.6363H87.8789V60.606Z" fill="black"/>
<path d="M15.1514 63.6364H12.1211V66.6667H15.1514V63.6364Z" fill="black"/>
<path d="M24.2422 63.6364H21.2119V66.6667H24.2422V63.6364Z" fill="black"/>
<path d="M30.3028 63.6364H27.2725V66.6667H30.3028V63.6364Z" fill="black"/>
<path d="M33.333 63.6364H30.3027V66.6667H33.333V63.6364Z" fill="black"/>
<path d="M36.3633 63.6364H33.333V66.6667H36.3633V63.6364Z" fill="black"/>
<path d="M39.3936 63.6364H36.3633V66.6667H39.3936V63.6364Z" fill="black"/>
<path d="M42.4239 63.6364H39.3936V66.6667H42.4239V63.6364Z" fill="black"/>
<path d="M54.545 63.6364H51.5146V66.6667H54.545V63.6364Z" fill="black"/>
<path d="M57.5752 63.6364H54.5449V66.6667H57.5752V63.6364Z" fill="black"/>
<path d="M60.6065 63.6364H57.5762V66.6667H60.6065V63.6364Z" fill="black"/>
<path d="M63.6367 63.6364H60.6064V66.6667H63.6367V63.6364Z" fill="black"/>
<path d="M66.667 63.6364H63.6367V66.6667H66.667V63.6364Z" fill="black"/>
<path d="M72.7276 63.6364H69.6973V66.6667H72.7276V63.6364Z" fill="black"/>
<path d="M75.7578 63.6364H72.7275V66.6667H75.7578V63.6364Z" fill="black"/>
<path d="M87.8789 63.6364H84.8486V66.6667H87.8789V63.6364Z" fill="black"/>
<path d="M12.1211 66.6666H9.09082V69.6969H12.1211V66.6666Z" fill="black"/>
<path d="M18.1817 66.6666H15.1514V69.6969H18.1817V66.6666Z" fill="black"/>
<path d="M27.2725 66.6666H24.2422V69.6969H27.2725V66.6666Z" fill="black"/>
<path d="M30.3028 66.6666H27.2725V69.6969H30.3028V66.6666Z" fill="black"/>
<path d="M36.3633 66.6666H33.333V69.6969H36.3633V66.6666Z" fill="black"/>
<path d="M48.4844 66.6666H45.4541V69.6969H48.4844V66.6666Z" fill="black"/>
<path d="M54.545 66.6666H51.5146V69.6969H54.545V66.6666Z" fill="black"/>
<path d="M57.5752 66.6666H54.5449V69.6969H57.5752V66.6666Z" fill="black"/>
<path d="M60.6065 66.6666H57.5762V69.6969H60.6065V66.6666Z" fill="black"/>
<path d="M63.6367 66.6666H60.6064V69.6969H63.6367V66.6666Z" fill="black"/>
<path d="M66.667 66.6666H63.6367V69.6969H66.667V66.6666Z" fill="black"/>
<path d="M69.6973 66.6666H66.667V69.6969H69.6973V66.6666Z" fill="black"/>
<path d="M72.7276 66.6666H69.6973V69.6969H72.7276V66.6666Z" fill="black"/>
<path d="M75.7578 66.6666H72.7275V69.6969H75.7578V66.6666Z" fill="black"/>
<path d="M78.7881 66.6666H75.7578V69.6969H78.7881V66.6666Z" fill="black"/>
<path d="M81.8184 66.6666H78.7881V69.6969H81.8184V66.6666Z" fill="black"/>
<path d="M84.8487 66.6666H81.8184V69.6969H84.8487V66.6666Z" fill="black"/>
<path d="M87.8789 66.6666H84.8486V69.6969H87.8789V66.6666Z" fill="black"/>
<path d="M33.333 69.6969H30.3027V72.7272H33.333V69.6969Z" fill="black"/>
<path d="M39.3936 69.6969H36.3633V72.7272H39.3936V69.6969Z" fill="black"/>
<path d="M42.4239 69.6969H39.3936V72.7272H42.4239V69.6969Z" fill="black"/>
<path d="M48.4844 69.6969H45.4541V72.7272H48.4844V69.6969Z" fill="black"/>
<path d="M51.5147 69.6969H48.4844V72.7272H51.5147V69.6969Z" fill="black"/>
<path d="M57.5752 69.6969H54.5449V72.7272H57.5752V69.6969Z" fill="black"/>
<path d="M63.6367 69.6969H60.6064V72.7272H63.6367V69.6969Z" fill="black"/>
<path d="M69.6973 69.6969H66.667V72.7272H69.6973V69.6969Z" fill="black"/>
<path d="M81.8184 69.6969H78.7881V72.7272H81.8184V69.6969Z" fill="black"/>
<path d="M84.8487 69.6969H81.8184V72.7272H84.8487V69.6969Z" fill="black"/>
<path d="M87.8789 69.6969H84.8486V72.7272H87.8789V69.6969Z" fill="black"/>
<path d="M90.9092 69.6969H87.8789V72.7272H90.9092V69.6969Z" fill="black"/>
<path d="M93.9395 69.6969H90.9092V72.7272H93.9395V69.6969Z" fill="black"/>
<path d="M33.333 72.7272H30.3027V75.7575H33.333V72.7272Z" fill="black"/>
<path d="M36.3633 72.7272H33.333V75.7575H36.3633V72.7272Z" fill="black"/>
<path d="M39.3936 72.7272H36.3633V75.7575H39.3936V72.7272Z" fill="black"/>
<path d="M42.4239 72.7272H39.3936V75.7575H42.4239V72.7272Z" fill="black"/>
<path d="M48.4844 72.7272H45.4541V75.7575H48.4844V72.7272Z" fill="black"/>
<path d="M57.5752 72.7272H54.5449V75.7575H57.5752V72.7272Z" fill="black"/>
<path d="M60.6065 72.7272H57.5762V75.7575H60.6065V72.7272Z" fill="black"/>
<path d="M66.667 72.7272H63.6367V75.7575H66.667V72.7272Z" fill="black"/>
<path d="M69.6973 72.7272H66.667V75.7575H69.6973V72.7272Z" fill="black"/>
<path d="M75.7578 72.7272H72.7275V75.7575H75.7578V72.7272Z" fill="black"/>
<path d="M81.8184 72.7272H78.7881V75.7575H81.8184V72.7272Z" fill="black"/>
<path d="M84.8487 72.7272H81.8184V75.7575H84.8487V72.7272Z" fill="black"/>
<path d="M90.9092 72.7272H87.8789V75.7575H90.9092V72.7272Z" fill="black"/>
<path d="M33.333 75.7576H30.3027V78.7879H33.333V75.7576Z" fill="black"/>
<path d="M36.3633 75.7576H33.333V78.7879H36.3633V75.7576Z" fill="black"/>
<path d="M39.3936 75.7576H36.3633V78.7879H39.3936V75.7576Z" fill="black"/>
<path d="M42.4239 75.7576H39.3936V78.7879H42.4239V75.7576Z" fill="black"/>
<path d="M45.4541 75.7576H42.4238V78.7879H45.4541V75.7576Z" fill="black"/>
<path d="M57.5752 75.7576H54.5449V78.7879H57.5752V75.7576Z" fill="black"/>
<path d="M63.6367 75.7576H60.6064V78.7879H63.6367V75.7576Z" fill="black"/>
<path d="M69.6973 75.7576H66.667V78.7879H69.6973V75.7576Z" fill="black"/>
<path d="M81.8184 75.7576H78.7881V78.7879H81.8184V75.7576Z" fill="black"/>
<path d="M84.8487 75.7576H81.8184V78.7879H84.8487V75.7576Z" fill="black"/>
<path d="M90.9092 75.7576H87.8789V78.7879H90.9092V75.7576Z" fill="black"/>
<path d="M93.9395 75.7576H90.9092V78.7879H93.9395V75.7576Z" fill="black"/>
<path d="M45.4541 78.7878H42.4238V81.8181H45.4541V78.7878Z" fill="black"/>
<path d="M51.5147 78.7878H48.4844V81.8181H51.5147V78.7878Z" fill="black"/>
<path d="M60.6065 78.7878H57.5762V81.8181H60.6065V78.7878Z" fill="black"/>
<path d="M69.6973 78.7878H66.667V81.8181H69.6973V78.7878Z" fill="black"/>
<path d="M72.7276 78.7878H69.6973V81.8181H72.7276V78.7878Z" fill="black"/>
<path d="M75.7578 78.7878H72.7275V81.8181H75.7578V78.7878Z" fill="black"/>
<path d="M78.7881 78.7878H75.7578V81.8181H78.7881V78.7878Z" fill="black"/>
<path d="M81.8184 78.7878H78.7881V81.8181H81.8184V78.7878Z" fill="black"/>
<path d="M87.8789 78.7878H84.8486V81.8181H87.8789V78.7878Z" fill="black"/>
<path d="M33.333 81.8181H30.3027V84.8484H33.333V81.8181Z" fill="black"/>
<path d="M36.3633 81.8181H33.333V84.8484H36.3633V81.8181Z" fill="black"/>
<path d="M51.5147 81.8181H48.4844V84.8484H51.5147V81.8181Z" fill="black"/>
<path d="M54.545 81.8181H51.5146V84.8484H54.545V81.8181Z" fill="black"/>
<path d="M57.5752 81.8181H54.5449V84.8484H57.5752V81.8181Z" fill="black"/>
<path d="M60.6065 81.8181H57.5762V84.8484H60.6065V81.8181Z" fill="black"/>
<path d="M63.6367 81.8181H60.6064V84.8484H63.6367V81.8181Z" fill="black"/>
<path d="M66.667 81.8181H63.6367V84.8484H66.667V81.8181Z" fill="black"/>
<path d="M69.6973 81.8181H66.667V84.8484H69.6973V81.8181Z" fill="black"/>
<path d="M72.7276 81.8181H69.6973V84.8484H72.7276V81.8181Z" fill="black"/>
<path d="M81.8184 81.8181H78.7881V84.8484H81.8184V81.8181Z" fill="black"/>
<path d="M84.8487 81.8181H81.8184V84.8484H84.8487V81.8181Z" fill="black"/>
<path d="M93.9395 81.8181H90.9092V84.8484H93.9395V81.8181Z" fill="black"/>
<path d="M33.333 84.8484H30.3027V87.8787H33.333V84.8484Z" fill="black"/>
<path d="M36.3633 84.8484H33.333V87.8787H36.3633V84.8484Z" fill="black"/>
<path d="M42.4239 84.8484H39.3936V87.8787H42.4239V84.8484Z" fill="black"/>
<path d="M45.4541 84.8484H42.4238V87.8787H45.4541V84.8484Z" fill="black"/>
<path d="M57.5752 84.8484H54.5449V87.8787H57.5752V84.8484Z" fill="black"/>
<path d="M60.6065 84.8484H57.5762V87.8787H60.6065V84.8484Z" fill="black"/>
<path d="M66.667 84.8484H63.6367V87.8787H66.667V84.8484Z" fill="black"/>
<path d="M72.7276 84.8484H69.6973V87.8787H72.7276V84.8484Z" fill="black"/>
<path d="M78.7881 84.8484H75.7578V87.8787H78.7881V84.8484Z" fill="black"/>
<path d="M87.8789 84.8484H84.8486V87.8787H87.8789V84.8484Z" fill="black"/>
<path d="M93.9395 84.8484H90.9092V87.8787H93.9395V84.8484Z" fill="black"/>
<path d="M36.3633 87.8788H33.333V90.9091H36.3633V87.8788Z" fill="black"/>
<path d="M42.4239 87.8788H39.3936V90.9091H42.4239V87.8788Z" fill="black"/>
<path d="M45.4541 87.8788H42.4238V90.9091H45.4541V87.8788Z" fill="black"/>
<path d="M48.4844 87.8788H45.4541V90.9091H48.4844V87.8788Z" fill="black"/>
<path d="M51.5147 87.8788H48.4844V90.9091H51.5147V87.8788Z" fill="black"/>
<path d="M54.545 87.8788H51.5146V90.9091H54.545V87.8788Z" fill="black"/>
<path d="M57.5752 87.8788H54.5449V90.9091H57.5752V87.8788Z" fill="black"/>
<path d="M63.6367 87.8788H60.6064V90.9091H63.6367V87.8788Z" fill="black"/>
<path d="M69.6973 87.8788H66.667V90.9091H69.6973V87.8788Z" fill="black"/>
<path d="M78.7881 87.8788H75.7578V90.9091H78.7881V87.8788Z" fill="black"/>
<path d="M84.8487 87.8788H81.8184V90.9091H84.8487V87.8788Z" fill="black"/>
<path d="M90.9092 87.8788H87.8789V90.9091H90.9092V87.8788Z" fill="black"/>
<path d="M33.333 90.9091H30.3027V93.9394H33.333V90.9091Z" fill="black"/>
<path d="M36.3633 90.9091H33.333V93.9394H36.3633V90.9091Z" fill="black"/>
<path d="M42.4239 90.9091H39.3936V93.9394H42.4239V90.9091Z" fill="black"/>
<path d="M51.5147 90.9091H48.4844V93.9394H51.5147V90.9091Z" fill="black"/>
<path d="M57.5752 90.9091H54.5449V93.9394H57.5752V90.9091Z" fill="black"/>
<path d="M63.6367 90.9091H60.6064V93.9394H63.6367V90.9091Z" fill="black"/>
<path d="M66.667 90.9091H63.6367V93.9394H66.667V90.9091Z" fill="black"/>
<path d="M69.6973 90.9091H66.667V93.9394H69.6973V90.9091Z" fill="black"/>
<path d="M84.8487 90.9091H81.8184V93.9394H84.8487V90.9091Z" fill="black"/>
<path d="M90.9092 90.9091H87.8789V93.9394H90.9092V90.9091Z" fill="black"/>
<path d="M24.0909 6.06055H9.24237H6.06055V9.24237V24.0909V27.2727H9.24237H24.0909H27.2727V24.0909V9.24237V6.06055H24.0909ZM24.0909 24.0909H9.24237V9.24237H24.0909V24.0909Z" fill="black"/>
<path d="M90.7578 6.06055H75.9094H72.7275V9.24237V24.0909V27.2727H75.9094H90.7578H93.9397V24.0909V9.24237V6.06055H90.7578ZM90.7578 24.0909H75.9094V9.24237H90.7578V24.0909Z" fill="black"/>
<path d="M24.0909 72.7272H9.24237H6.06055V75.909V90.7575V93.9393H9.24237H24.0909H27.2727V90.7575V75.909V72.7272H24.0909ZM24.0909 90.7575H9.24237V75.909H24.0909V90.7575Z" fill="black"/>
<path d="M21.212 12.1211H12.1211V21.212H21.212V12.1211Z" fill="black"/>
<path d="M87.879 12.1211H78.7881V21.212H87.879V12.1211Z" fill="black"/>
<path d="M21.212 78.7878H12.1211V87.8788H21.212V78.7878Z" fill="black"/>
</svg>
