<svg width="100" height="100" viewBox="0 0 100 100" fill="none" xmlns="http://www.w3.org/2000/svg">
<path d="M37.9307 6.89655H34.4824V10.3448H37.9307V6.89655Z" fill="black"/>
<path d="M41.3789 6.89655H37.9307V10.3448H41.3789V6.89655Z" fill="black"/>
<path d="M44.8272 6.89655H41.3789V10.3448H44.8272V6.89655Z" fill="black"/>
<path d="M55.1719 6.89655H51.7236V10.3448H55.1719V6.89655Z" fill="black"/>
<path d="M58.6202 6.89655H55.1719V10.3448H58.6202V6.89655Z" fill="black"/>
<path d="M37.9307 10.3448H34.4824V13.7931H37.9307V10.3448Z" fill="black"/>
<path d="M44.8272 10.3448H41.3789V13.7931H44.8272V10.3448Z" fill="black"/>
<path d="M48.2754 10.3448H44.8271V13.7931H48.2754V10.3448Z" fill="black"/>
<path d="M51.7237 10.3448H48.2754V13.7931H51.7237V10.3448Z" fill="black"/>
<path d="M65.5176 10.3448H62.0693V13.7931H65.5176V10.3448Z" fill="black"/>
<path d="M37.9307 13.7931H34.4824V17.2414H37.9307V13.7931Z" fill="black"/>
<path d="M41.3789 13.7931H37.9307V17.2414H41.3789V13.7931Z" fill="black"/>
<path d="M48.2754 13.7931H44.8271V17.2414H48.2754V13.7931Z" fill="black"/>
<path d="M55.1719 13.7931H51.7236V17.2414H55.1719V13.7931Z" fill="black"/>
<path d="M58.6202 13.7931H55.1719V17.2414H58.6202V13.7931Z" fill="black"/>
<path d="M62.0694 13.7931H58.6211V17.2414H62.0694V13.7931Z" fill="black"/>
<path d="M65.5176 13.7931H62.0693V17.2414H65.5176V13.7931Z" fill="black"/>
<path d="M48.2754 17.2414H44.8271V20.6897H48.2754V17.2414Z" fill="black"/>
<path d="M51.7237 17.2414H48.2754V20.6897H51.7237V17.2414Z" fill="black"/>
<path d="M55.1719 17.2414H51.7236V20.6897H55.1719V17.2414Z" fill="black"/>
<path d="M65.5176 17.2414H62.0693V20.6897H65.5176V17.2414Z" fill="black"/>
<path d="M37.9307 20.6896H34.4824V24.1379H37.9307V20.6896Z" fill="black"/>
<path d="M41.3789 20.6896H37.9307V24.1379H41.3789V20.6896Z" fill="black"/>
<path d="M51.7237 20.6896H48.2754V24.1379H51.7237V20.6896Z" fill="black"/>
<path d="M55.1719 20.6896H51.7236V24.1379H55.1719V20.6896Z" fill="black"/>
<path d="M58.6202 20.6896H55.1719V24.1379H58.6202V20.6896Z" fill="black"/>
<path d="M65.5176 20.6896H62.0693V24.1379H65.5176V20.6896Z" fill="black"/>
<path d="M41.3789 24.1379H37.9307V27.5862H41.3789V24.1379Z" fill="black"/>
<path d="M51.7237 24.1379H48.2754V27.5862H51.7237V24.1379Z" fill="black"/>
<path d="M55.1719 24.1379H51.7236V27.5862H55.1719V24.1379Z" fill="black"/>
<path d="M58.6202 24.1379H55.1719V27.5862H58.6202V24.1379Z" fill="black"/>
<path d="M37.9307 27.5862H34.4824V31.0345H37.9307V27.5862Z" fill="black"/>
<path d="M44.8272 27.5862H41.3789V31.0345H44.8272V27.5862Z" fill="black"/>
<path d="M51.7237 27.5862H48.2754V31.0345H51.7237V27.5862Z" fill="black"/>
<path d="M58.6202 27.5862H55.1719V31.0345H58.6202V27.5862Z" fill="black"/>
<path d="M65.5176 27.5862H62.0693V31.0345H65.5176V27.5862Z" fill="black"/>
<path d="M41.3789 31.0345H37.9307V34.4828H41.3789V31.0345Z" fill="black"/>
<path d="M55.1719 31.0345H51.7236V34.4828H55.1719V31.0345Z" fill="black"/>
<path d="M58.6202 31.0345H55.1719V34.4828H58.6202V31.0345Z" fill="black"/>
<path d="M65.5176 31.0345H62.0693V34.4828H65.5176V31.0345Z" fill="black"/>
<path d="M10.3448 34.4827H6.89648V37.931H10.3448V34.4827Z" fill="black"/>
<path d="M20.6895 34.4827H17.2412V37.931H20.6895V34.4827Z" fill="black"/>
<path d="M24.1377 34.4827H20.6895V37.931H24.1377V34.4827Z" fill="black"/>
<path d="M27.586 34.4827H24.1377V37.931H27.586V34.4827Z" fill="black"/>
<path d="M31.0342 34.4827H27.5859V37.931H31.0342V34.4827Z" fill="black"/>
<path d="M34.4825 34.4827H31.0342V37.931H34.4825V34.4827Z" fill="black"/>
<path d="M37.9307 34.4827H34.4824V37.931H37.9307V34.4827Z" fill="black"/>
<path d="M58.6202 34.4827H55.1719V37.931H58.6202V34.4827Z" fill="black"/>
<path d="M65.5176 34.4827H62.0693V37.931H65.5176V34.4827Z" fill="black"/>
<path d="M68.9659 34.4827H65.5176V37.931H68.9659V34.4827Z" fill="black"/>
<path d="M79.3106 34.4827H75.8623V37.931H79.3106V34.4827Z" fill="black"/>
<path d="M86.2071 34.4827H82.7588V37.931H86.2071V34.4827Z" fill="black"/>
<path d="M89.6553 34.4827H86.207V37.931H89.6553V34.4827Z" fill="black"/>
<path d="M93.1035 34.4827H89.6553V37.931H93.1035V34.4827Z" fill="black"/>
<path d="M17.2412 37.931H13.793V41.3793H17.2412V37.931Z" fill="black"/>
<path d="M27.586 37.931H24.1377V41.3793H27.586V37.931Z" fill="black"/>
<path d="M34.4825 37.931H31.0342V41.3793H34.4825V37.931Z" fill="black"/>
<path d="M41.3789 37.931H37.9307V41.3793H41.3789V37.931Z" fill="black"/>
<path d="M44.8272 37.931H41.3789V41.3793H44.8272V37.931Z" fill="black"/>
<path d="M48.2754 37.931H44.8271V41.3793H48.2754V37.931Z" fill="black"/>
<path d="M51.7237 37.931H48.2754V41.3793H51.7237V37.931Z" fill="black"/>
<path d="M62.0694 37.931H58.6211V41.3793H62.0694V37.931Z" fill="black"/>
<path d="M68.9659 37.931H65.5176V41.3793H68.9659V37.931Z" fill="black"/>
<path d="M75.8623 37.931H72.4141V41.3793H75.8623V37.931Z" fill="black"/>
<path d="M79.3106 37.931H75.8623V41.3793H79.3106V37.931Z" fill="black"/>
<path d="M82.7588 37.931H79.3105V41.3793H82.7588V37.931Z" fill="black"/>
<path d="M86.2071 37.931H82.7588V41.3793H86.2071V37.931Z" fill="black"/>
<path d="M89.6553 37.931H86.207V41.3793H89.6553V37.931Z" fill="black"/>
<path d="M10.3448 41.3793H6.89648V44.8275H10.3448V41.3793Z" fill="black"/>
<path d="M17.2412 41.3793H13.793V44.8275H17.2412V41.3793Z" fill="black"/>
<path d="M24.1377 41.3793H20.6895V44.8275H24.1377V41.3793Z" fill="black"/>
<path d="M31.0342 41.3793H27.5859V44.8275H31.0342V41.3793Z" fill="black"/>
<path d="M37.9307 41.3793H34.4824V44.8275H37.9307V41.3793Z" fill="black"/>
<path d="M41.3789 41.3793H37.9307V44.8275H41.3789V41.3793Z" fill="black"/>
<path d="M51.7237 41.3793H48.2754V44.8275H51.7237V41.3793Z" fill="black"/>
<path d="M62.0694 41.3793H58.6211V44.8275H62.0694V41.3793Z" fill="black"/>
<path d="M65.5176 41.3793H62.0693V44.8275H65.5176V41.3793Z" fill="black"/>
<path d="M72.4141 41.3793H68.9658V44.8275H72.4141V41.3793Z" fill="black"/>
<path d="M75.8623 41.3793H72.4141V44.8275H75.8623V41.3793Z" fill="black"/>
<path d="M82.7588 41.3793H79.3105V44.8275H82.7588V41.3793Z" fill="black"/>
<path d="M93.1035 41.3793H89.6553V44.8275H93.1035V41.3793Z" fill="black"/>
<path d="M10.3448 44.8276H6.89648V48.2759H10.3448V44.8276Z" fill="black"/>
<path d="M13.793 44.8276H10.3447V48.2759H13.793V44.8276Z" fill="black"/>
<path d="M24.1377 44.8276H20.6895V48.2759H24.1377V44.8276Z" fill="black"/>
<path d="M41.3789 44.8276H37.9307V48.2759H41.3789V44.8276Z" fill="black"/>
<path d="M48.2754 44.8276H44.8271V48.2759H48.2754V44.8276Z" fill="black"/>
<path d="M51.7237 44.8276H48.2754V48.2759H51.7237V44.8276Z" fill="black"/>
<path d="M58.6202 44.8276H55.1719V48.2759H58.6202V44.8276Z" fill="black"/>
<path d="M65.5176 44.8276H62.0693V48.2759H65.5176V44.8276Z" fill="black"/>
<path d="M75.8623 44.8276H72.4141V48.2759H75.8623V44.8276Z" fill="black"/>
<path d="M82.7588 44.8276H79.3105V48.2759H82.7588V44.8276Z" fill="black"/>
<path d="M86.2071 44.8276H82.7588V48.2759H86.2071V44.8276Z" fill="black"/>
<path d="M89.6553 44.8276H86.207V48.2759H89.6553V44.8276Z" fill="black"/>
<path d="M93.1035 44.8276H89.6553V48.2759H93.1035V44.8276Z" fill="black"/>
<path d="M17.2412 48.2759H13.793V51.7242H17.2412V48.2759Z" fill="black"/>
<path d="M27.586 48.2759H24.1377V51.7242H27.586V48.2759Z" fill="black"/>
<path d="M31.0342 48.2759H27.5859V51.7242H31.0342V48.2759Z" fill="black"/>
<path d="M41.3789 48.2759H37.9307V51.7242H41.3789V48.2759Z" fill="black"/>
<path d="M44.8272 48.2759H41.3789V51.7242H44.8272V48.2759Z" fill="black"/>
<path d="M48.2754 48.2759H44.8271V51.7242H48.2754V48.2759Z" fill="black"/>
<path d="M65.5176 48.2759H62.0693V51.7242H65.5176V48.2759Z" fill="black"/>
<path d="M72.4141 48.2759H68.9658V51.7242H72.4141V48.2759Z" fill="black"/>
<path d="M93.1035 48.2759H89.6553V51.7242H93.1035V48.2759Z" fill="black"/>
<path d="M10.3448 51.7241H6.89648V55.1724H10.3448V51.7241Z" fill="black"/>
<path d="M13.793 51.7241H10.3447V55.1724H13.793V51.7241Z" fill="black"/>
<path d="M24.1377 51.7241H20.6895V55.1724H24.1377V51.7241Z" fill="black"/>
<path d="M41.3789 51.7241H37.9307V55.1724H41.3789V51.7241Z" fill="black"/>
<path d="M51.7237 51.7241H48.2754V55.1724H51.7237V51.7241Z" fill="black"/>
<path d="M55.1719 51.7241H51.7236V55.1724H55.1719V51.7241Z" fill="black"/>
<path d="M62.0694 51.7241H58.6211V55.1724H62.0694V51.7241Z" fill="black"/>
<path d="M65.5176 51.7241H62.0693V55.1724H65.5176V51.7241Z" fill="black"/>
<path d="M68.9659 51.7241H65.5176V55.1724H68.9659V51.7241Z" fill="black"/>
<path d="M79.3106 51.7241H75.8623V55.1724H79.3106V51.7241Z" fill="black"/>
<path d="M89.6553 51.7241H86.207V55.1724H89.6553V51.7241Z" fill="black"/>
<path d="M10.3448 55.1724H6.89648V58.6207H10.3448V55.1724Z" fill="black"/>
<path d="M13.793 55.1724H10.3447V58.6207H13.793V55.1724Z" fill="black"/>
<path d="M17.2412 55.1724H13.793V58.6207H17.2412V55.1724Z" fill="black"/>
<path d="M27.586 55.1724H24.1377V58.6207H27.586V55.1724Z" fill="black"/>
<path d="M31.0342 55.1724H27.5859V58.6207H31.0342V55.1724Z" fill="black"/>
<path d="M34.4825 55.1724H31.0342V58.6207H34.4825V55.1724Z" fill="black"/>
<path d="M37.9307 55.1724H34.4824V58.6207H37.9307V55.1724Z" fill="black"/>
<path d="M41.3789 55.1724H37.9307V58.6207H41.3789V55.1724Z" fill="black"/>
<path d="M62.0694 55.1724H58.6211V58.6207H62.0694V55.1724Z" fill="black"/>
<path d="M68.9659 55.1724H65.5176V58.6207H68.9659V55.1724Z" fill="black"/>
<path d="M72.4141 55.1724H68.9658V58.6207H72.4141V55.1724Z" fill="black"/>
<path d="M79.3106 55.1724H75.8623V58.6207H79.3106V55.1724Z" fill="black"/>
<path d="M82.7588 55.1724H79.3105V58.6207H82.7588V55.1724Z" fill="black"/>
<path d="M86.2071 55.1724H82.7588V58.6207H86.2071V55.1724Z" fill="black"/>
<path d="M89.6553 55.1724H86.207V58.6207H89.6553V55.1724Z" fill="black"/>
<path d="M93.1035 55.1724H89.6553V58.6207H93.1035V55.1724Z" fill="black"/>
<path d="M10.3448 58.6207H6.89648V62.069H10.3448V58.6207Z" fill="black"/>
<path d="M20.6895 58.6207H17.2412V62.069H20.6895V58.6207Z" fill="black"/>
<path d="M34.4825 58.6207H31.0342V62.069H34.4825V58.6207Z" fill="black"/>
<path d="M37.9307 58.6207H34.4824V62.069H37.9307V58.6207Z" fill="black"/>
<path d="M44.8272 58.6207H41.3789V62.069H44.8272V58.6207Z" fill="black"/>
<path d="M51.7237 58.6207H48.2754V62.069H51.7237V58.6207Z" fill="black"/>
<path d="M65.5176 58.6207H62.0693V62.069H65.5176V58.6207Z" fill="black"/>
<path d="M68.9659 58.6207H65.5176V62.069H68.9659V58.6207Z" fill="black"/>
<path d="M75.8623 58.6207H72.4141V62.069H75.8623V58.6207Z" fill="black"/>
<path d="M82.7588 58.6207H79.3105V62.069H82.7588V58.6207Z" fill="black"/>
<path d="M86.2071 58.6207H82.7588V62.069H86.2071V58.6207Z" fill="black"/>
<path d="M93.1035 58.6207H89.6553V62.069H93.1035V58.6207Z" fill="black"/>
<path d="M10.3448 62.069H6.89648V65.5172H10.3448V62.069Z" fill="black"/>
<path d="M17.2412 62.069H13.793V65.5172H17.2412V62.069Z" fill="black"/>
<path d="M27.586 62.069H24.1377V65.5172H27.586V62.069Z" fill="black"/>
<path d="M31.0342 62.069H27.5859V65.5172H31.0342V62.069Z" fill="black"/>
<path d="M48.2754 62.069H44.8271V65.5172H48.2754V62.069Z" fill="black"/>
<path d="M51.7237 62.069H48.2754V65.5172H51.7237V62.069Z" fill="black"/>
<path d="M55.1719 62.069H51.7236V65.5172H55.1719V62.069Z" fill="black"/>
<path d="M58.6202 62.069H55.1719V65.5172H58.6202V62.069Z" fill="black"/>
<path d="M62.0694 62.069H58.6211V65.5172H62.0694V62.069Z" fill="black"/>
<path d="M65.5176 62.069H62.0693V65.5172H65.5176V62.069Z" fill="black"/>
<path d="M68.9659 62.069H65.5176V65.5172H68.9659V62.069Z" fill="black"/>
<path d="M72.4141 62.069H68.9658V65.5172H72.4141V62.069Z" fill="black"/>
<path d="M75.8623 62.069H72.4141V65.5172H75.8623V62.069Z" fill="black"/>
<path d="M79.3106 62.069H75.8623V65.5172H79.3106V62.069Z" fill="black"/>
<path d="M86.2071 62.069H82.7588V65.5172H86.2071V62.069Z" fill="black"/>
<path d="M89.6553 62.069H86.207V65.5172H89.6553V62.069Z" fill="black"/>
<path d="M37.9307 65.5172H34.4824V68.9655H37.9307V65.5172Z" fill="black"/>
<path d="M41.3789 65.5172H37.9307V68.9655H41.3789V65.5172Z" fill="black"/>
<path d="M48.2754 65.5172H44.8271V68.9655H48.2754V65.5172Z" fill="black"/>
<path d="M55.1719 65.5172H51.7236V68.9655H55.1719V65.5172Z" fill="black"/>
<path d="M65.5176 65.5172H62.0693V68.9655H65.5176V65.5172Z" fill="black"/>
<path d="M79.3106 65.5172H75.8623V68.9655H79.3106V65.5172Z" fill="black"/>
<path d="M86.2071 65.5172H82.7588V68.9655H86.2071V65.5172Z" fill="black"/>
<path d="M89.6553 65.5172H86.207V68.9655H89.6553V65.5172Z" fill="black"/>
<path d="M37.9307 68.9655H34.4824V72.4137H37.9307V68.9655Z" fill="black"/>
<path d="M51.7237 68.9655H48.2754V72.4137H51.7237V68.9655Z" fill="black"/>
<path d="M65.5176 68.9655H62.0693V72.4137H65.5176V68.9655Z" fill="black"/>
<path d="M72.4141 68.9655H68.9658V72.4137H72.4141V68.9655Z" fill="black"/>
<path d="M79.3106 68.9655H75.8623V72.4137H79.3106V68.9655Z" fill="black"/>
<path d="M93.1035 68.9655H89.6553V72.4137H93.1035V68.9655Z" fill="black"/>
<path d="M37.9307 72.4138H34.4824V75.8621H37.9307V72.4138Z" fill="black"/>
<path d="M41.3789 72.4138H37.9307V75.8621H41.3789V72.4138Z" fill="black"/>
<path d="M48.2754 72.4138H44.8271V75.8621H48.2754V72.4138Z" fill="black"/>
<path d="M55.1719 72.4138H51.7236V75.8621H55.1719V72.4138Z" fill="black"/>
<path d="M58.6202 72.4138H55.1719V75.8621H58.6202V72.4138Z" fill="black"/>
<path d="M62.0694 72.4138H58.6211V75.8621H62.0694V72.4138Z" fill="black"/>
<path d="M65.5176 72.4138H62.0693V75.8621H65.5176V72.4138Z" fill="black"/>
<path d="M79.3106 72.4138H75.8623V75.8621H79.3106V72.4138Z" fill="black"/>
<path d="M93.1035 72.4138H89.6553V75.8621H93.1035V72.4138Z" fill="black"/>
<path d="M37.9307 75.8621H34.4824V79.3103H37.9307V75.8621Z" fill="black"/>
<path d="M44.8272 75.8621H41.3789V79.3103H44.8272V75.8621Z" fill="black"/>
<path d="M48.2754 75.8621H44.8271V79.3103H48.2754V75.8621Z" fill="black"/>
<path d="M51.7237 75.8621H48.2754V79.3103H51.7237V75.8621Z" fill="black"/>
<path d="M58.6202 75.8621H55.1719V79.3103H58.6202V75.8621Z" fill="black"/>
<path d="M62.0694 75.8621H58.6211V79.3103H62.0694V75.8621Z" fill="black"/>
<path d="M65.5176 75.8621H62.0693V79.3103H65.5176V75.8621Z" fill="black"/>
<path d="M68.9659 75.8621H65.5176V79.3103H68.9659V75.8621Z" fill="black"/>
<path d="M72.4141 75.8621H68.9658V79.3103H72.4141V75.8621Z" fill="black"/>
<path d="M75.8623 75.8621H72.4141V79.3103H75.8623V75.8621Z" fill="black"/>
<path d="M79.3106 75.8621H75.8623V79.3103H79.3106V75.8621Z" fill="black"/>
<path d="M37.9307 79.3103H34.4824V82.7586H37.9307V79.3103Z" fill="black"/>
<path d="M51.7237 79.3103H48.2754V82.7586H51.7237V79.3103Z" fill="black"/>
<path d="M58.6202 79.3103H55.1719V82.7586H58.6202V79.3103Z" fill="black"/>
<path d="M62.0694 79.3103H58.6211V82.7586H62.0694V79.3103Z" fill="black"/>
<path d="M72.4141 79.3103H68.9658V82.7586H72.4141V79.3103Z" fill="black"/>
<path d="M89.6553 79.3103H86.207V82.7586H89.6553V79.3103Z" fill="black"/>
<path d="M93.1035 79.3103H89.6553V82.7586H93.1035V79.3103Z" fill="black"/>
<path d="M48.2754 82.7587H44.8271V86.2069H48.2754V82.7587Z" fill="black"/>
<path d="M62.0694 82.7587H58.6211V86.2069H62.0694V82.7587Z" fill="black"/>
<path d="M65.5176 82.7587H62.0693V86.2069H65.5176V82.7587Z" fill="black"/>
<path d="M68.9659 82.7587H65.5176V86.2069H68.9659V82.7587Z" fill="black"/>
<path d="M79.3106 82.7587H75.8623V86.2069H79.3106V82.7587Z" fill="black"/>
<path d="M82.7588 82.7587H79.3105V86.2069H82.7588V82.7587Z" fill="black"/>
<path d="M86.2071 82.7587H82.7588V86.2069H86.2071V82.7587Z" fill="black"/>
<path d="M89.6553 82.7587H86.207V86.2069H89.6553V82.7587Z" fill="black"/>
<path d="M93.1035 82.7587H89.6553V86.2069H93.1035V82.7587Z" fill="black"/>
<path d="M41.3789 86.2069H37.9307V89.6552H41.3789V86.2069Z" fill="black"/>
<path d="M48.2754 86.2069H44.8271V89.6552H48.2754V86.2069Z" fill="black"/>
<path d="M75.8623 86.2069H72.4141V89.6552H75.8623V86.2069Z" fill="black"/>
<path d="M79.3106 86.2069H75.8623V89.6552H79.3106V86.2069Z" fill="black"/>
<path d="M86.2071 86.2069H82.7588V89.6552H86.2071V86.2069Z" fill="black"/>
<path d="M89.6553 86.2069H86.207V89.6552H89.6553V86.2069Z" fill="black"/>
<path d="M93.1035 86.2069H89.6553V89.6552H93.1035V86.2069Z" fill="black"/>
<path d="M37.9307 89.6552H34.4824V93.1034H37.9307V89.6552Z" fill="black"/>
<path d="M44.8272 89.6552H41.3789V93.1034H44.8272V89.6552Z" fill="black"/>
<path d="M48.2754 89.6552H44.8271V93.1034H48.2754V89.6552Z" fill="black"/>
<path d="M51.7237 89.6552H48.2754V93.1034H51.7237V89.6552Z" fill="black"/>
<path d="M65.5176 89.6552H62.0693V93.1034H65.5176V89.6552Z" fill="black"/>
<path d="M68.9659 89.6552H65.5176V93.1034H68.9659V89.6552Z" fill="black"/>
<path d="M82.7588 89.6552H79.3105V93.1034H82.7588V89.6552Z" fill="black"/>
<path d="M93.1035 89.6552H89.6553V93.1034H93.1035V89.6552Z" fill="black"/>
<path d="M27.4137 6.89655H10.5172H6.89648V10.5172V27.4138V31.0345H10.5172H27.4137H31.0344V27.4138V10.5172V6.89655H27.4137ZM27.4137 27.4138H10.5172V10.5172H27.4137V27.4138Z" fill="black"/>
<path d="M89.4831 6.89655H72.5865H68.9658V10.5172V27.4138V31.0345H72.5865H89.4831H93.1038V27.4138V10.5172V6.89655H89.4831ZM89.4831 27.4138H72.5865V10.5172H89.4831V27.4138Z" fill="black"/>
<path d="M27.4137 68.9655H10.5172H6.89648V72.5861V89.4827V93.1034H10.5172H27.4137H31.0344V89.4827V72.5861V68.9655H27.4137ZM27.4137 89.4827H10.5172V72.5861H27.4137V89.4827Z" fill="black"/>
<path d="M24.1378 13.7931H13.793V24.1379H24.1378V13.7931Z" fill="black"/>
<path d="M86.2071 13.7931H75.8623V24.1379H86.2071V13.7931Z" fill="black"/>
<path d="M24.1378 75.8621H13.793V86.2069H24.1378V75.8621Z" fill="black"/>
</svg>
