<svg width="200" height="200" viewBox="0 0 200 200" fill="none" xmlns="http://www.w3.org/2000/svg">
<path d="M70.2697 10.8108H64.8643V16.2162H70.2697V10.8108Z" fill="black"/>
<path d="M75.6749 10.8108H70.2695V16.2162H75.6749V10.8108Z" fill="black"/>
<path d="M81.0812 10.8108H75.6758V16.2162H81.0812V10.8108Z" fill="black"/>
<path d="M97.297 10.8108H91.8916V16.2162H97.297V10.8108Z" fill="black"/>
<path d="M102.702 10.8108H97.2969V16.2162H102.702V10.8108Z" fill="black"/>
<path d="M113.513 10.8108H108.107V16.2162H113.513V10.8108Z" fill="black"/>
<path d="M118.919 10.8108H113.514V16.2162H118.919V10.8108Z" fill="black"/>
<path d="M135.135 10.8108H129.729V16.2162H135.135V10.8108Z" fill="black"/>
<path d="M140.54 10.8108H135.135V16.2162H140.54V10.8108Z" fill="black"/>
<path d="M64.8644 16.2163H59.459V21.6217H64.8644V16.2163Z" fill="black"/>
<path d="M70.2697 16.2163H64.8643V21.6217H70.2697V16.2163Z" fill="black"/>
<path d="M97.297 16.2163H91.8916V21.6217H97.297V16.2163Z" fill="black"/>
<path d="M102.702 16.2163H97.2969V21.6217H102.702V16.2163Z" fill="black"/>
<path d="M108.108 16.2163H102.702V21.6217H108.108V16.2163Z" fill="black"/>
<path d="M124.324 16.2163H118.919V21.6217H124.324V16.2163Z" fill="black"/>
<path d="M129.73 16.2163H124.324V21.6217H129.73V16.2163Z" fill="black"/>
<path d="M135.135 16.2163H129.729V21.6217H135.135V16.2163Z" fill="black"/>
<path d="M140.54 16.2163H135.135V21.6217H140.54V16.2163Z" fill="black"/>
<path d="M145.945 16.2163H140.54V21.6217H145.945V16.2163Z" fill="black"/>
<path d="M64.8644 21.6216H59.459V27.027H64.8644V21.6216Z" fill="black"/>
<path d="M70.2697 21.6216H64.8643V27.027H70.2697V21.6216Z" fill="black"/>
<path d="M91.8917 21.6216H86.4863V27.027H91.8917V21.6216Z" fill="black"/>
<path d="M102.702 21.6216H97.2969V27.027H102.702V21.6216Z" fill="black"/>
<path d="M108.108 21.6216H102.702V27.027H108.108V21.6216Z" fill="black"/>
<path d="M118.919 21.6216H113.514V27.027H118.919V21.6216Z" fill="black"/>
<path d="M140.54 21.6216H135.135V27.027H140.54V21.6216Z" fill="black"/>
<path d="M145.945 21.6216H140.54V27.027H145.945V21.6216Z" fill="black"/>
<path d="M64.8644 27.0271H59.459V32.4325H64.8644V27.0271Z" fill="black"/>
<path d="M75.6749 27.0271H70.2695V32.4325H75.6749V27.0271Z" fill="black"/>
<path d="M81.0812 27.0271H75.6758V32.4325H81.0812V27.0271Z" fill="black"/>
<path d="M86.4865 27.0271H81.0811V32.4325H86.4865V27.0271Z" fill="black"/>
<path d="M108.108 27.0271H102.702V32.4325H108.108V27.0271Z" fill="black"/>
<path d="M118.919 27.0271H113.514V32.4325H118.919V27.0271Z" fill="black"/>
<path d="M129.73 27.0271H124.324V32.4325H129.73V27.0271Z" fill="black"/>
<path d="M64.8644 32.4324H59.459V37.8378H64.8644V32.4324Z" fill="black"/>
<path d="M81.0812 32.4324H75.6758V37.8378H81.0812V32.4324Z" fill="black"/>
<path d="M102.702 32.4324H97.2969V37.8378H102.702V32.4324Z" fill="black"/>
<path d="M108.108 32.4324H102.702V37.8378H108.108V32.4324Z" fill="black"/>
<path d="M118.919 32.4324H113.514V37.8378H118.919V32.4324Z" fill="black"/>
<path d="M129.73 32.4324H124.324V37.8378H129.73V32.4324Z" fill="black"/>
<path d="M135.135 32.4324H129.729V37.8378H135.135V32.4324Z" fill="black"/>
<path d="M59.4591 37.8379H54.0537V43.2433H59.4591V37.8379Z" fill="black"/>
<path d="M70.2697 37.8379H64.8643V43.2433H70.2697V37.8379Z" fill="black"/>
<path d="M81.0812 37.8379H75.6758V43.2433H81.0812V37.8379Z" fill="black"/>
<path d="M108.108 37.8379H102.702V43.2433H108.108V37.8379Z" fill="black"/>
<path d="M113.513 37.8379H108.107V43.2433H113.513V37.8379Z" fill="black"/>
<path d="M124.324 37.8379H118.919V43.2433H124.324V37.8379Z" fill="black"/>
<path d="M135.135 37.8379H129.729V43.2433H135.135V37.8379Z" fill="black"/>
<path d="M140.54 37.8379H135.135V43.2433H140.54V37.8379Z" fill="black"/>
<path d="M59.4591 43.2432H54.0537V48.6486H59.4591V43.2432Z" fill="black"/>
<path d="M70.2697 43.2432H64.8643V48.6486H70.2697V43.2432Z" fill="black"/>
<path d="M81.0812 43.2432H75.6758V48.6486H81.0812V43.2432Z" fill="black"/>
<path d="M91.8917 43.2432H86.4863V48.6486H91.8917V43.2432Z" fill="black"/>
<path d="M102.702 43.2432H97.2969V48.6486H102.702V43.2432Z" fill="black"/>
<path d="M113.513 43.2432H108.107V48.6486H113.513V43.2432Z" fill="black"/>
<path d="M124.324 43.2432H118.919V48.6486H124.324V43.2432Z" fill="black"/>
<path d="M135.135 43.2432H129.729V48.6486H135.135V43.2432Z" fill="black"/>
<path d="M145.945 43.2432H140.54V48.6486H145.945V43.2432Z" fill="black"/>
<path d="M75.6749 48.6487H70.2695V54.0541H75.6749V48.6487Z" fill="black"/>
<path d="M81.0812 48.6487H75.6758V54.0541H81.0812V48.6487Z" fill="black"/>
<path d="M91.8917 48.6487H86.4863V54.0541H91.8917V48.6487Z" fill="black"/>
<path d="M108.108 48.6487H102.702V54.0541H108.108V48.6487Z" fill="black"/>
<path d="M113.513 48.6487H108.107V54.0541H113.513V48.6487Z" fill="black"/>
<path d="M118.919 48.6487H113.514V54.0541H118.919V48.6487Z" fill="black"/>
<path d="M124.324 48.6487H118.919V54.0541H124.324V48.6487Z" fill="black"/>
<path d="M129.73 48.6487H124.324V54.0541H129.73V48.6487Z" fill="black"/>
<path d="M145.945 48.6487H140.54V54.0541H145.945V48.6487Z" fill="black"/>
<path d="M16.216 54.054H10.8105V59.4594H16.216V54.054Z" fill="black"/>
<path d="M32.4318 54.054H27.0264V59.4594H32.4318V54.054Z" fill="black"/>
<path d="M43.2433 54.054H37.8379V59.4594H43.2433V54.054Z" fill="black"/>
<path d="M48.6486 54.054H43.2432V59.4594H48.6486V54.054Z" fill="black"/>
<path d="M59.4591 54.054H54.0537V59.4594H59.4591V54.054Z" fill="black"/>
<path d="M75.6749 54.054H70.2695V59.4594H75.6749V54.054Z" fill="black"/>
<path d="M81.0812 54.054H75.6758V59.4594H81.0812V54.054Z" fill="black"/>
<path d="M86.4865 54.054H81.0811V59.4594H86.4865V54.054Z" fill="black"/>
<path d="M91.8917 54.054H86.4863V59.4594H91.8917V54.054Z" fill="black"/>
<path d="M97.297 54.054H91.8916V59.4594H97.297V54.054Z" fill="black"/>
<path d="M102.702 54.054H97.2969V59.4594H102.702V54.054Z" fill="black"/>
<path d="M118.919 54.054H113.514V59.4594H118.919V54.054Z" fill="black"/>
<path d="M129.73 54.054H124.324V59.4594H129.73V54.054Z" fill="black"/>
<path d="M151.351 54.054H145.945V59.4594H151.351V54.054Z" fill="black"/>
<path d="M162.162 54.054H156.757V59.4594H162.162V54.054Z" fill="black"/>
<path d="M16.216 59.4595H10.8105V64.8649H16.216V59.4595Z" fill="black"/>
<path d="M21.6212 59.4595H16.2158V64.8649H21.6212V59.4595Z" fill="black"/>
<path d="M27.0265 59.4595H21.6211V64.8649H27.0265V59.4595Z" fill="black"/>
<path d="M32.4318 59.4595H27.0264V64.8649H32.4318V59.4595Z" fill="black"/>
<path d="M54.0538 59.4595H48.6484V64.8649H54.0538V59.4595Z" fill="black"/>
<path d="M59.4591 59.4595H54.0537V64.8649H59.4591V59.4595Z" fill="black"/>
<path d="M64.8644 59.4595H59.459V64.8649H64.8644V59.4595Z" fill="black"/>
<path d="M70.2697 59.4595H64.8643V64.8649H70.2697V59.4595Z" fill="black"/>
<path d="M81.0812 59.4595H75.6758V64.8649H81.0812V59.4595Z" fill="black"/>
<path d="M91.8917 59.4595H86.4863V64.8649H91.8917V59.4595Z" fill="black"/>
<path d="M102.702 59.4595H97.2969V64.8649H102.702V59.4595Z" fill="black"/>
<path d="M124.324 59.4595H118.919V64.8649H124.324V59.4595Z" fill="black"/>
<path d="M135.135 59.4595H129.729V64.8649H135.135V59.4595Z" fill="black"/>
<path d="M145.945 59.4595H140.54V64.8649H145.945V59.4595Z" fill="black"/>
<path d="M151.351 59.4595H145.945V64.8649H151.351V59.4595Z" fill="black"/>
<path d="M156.757 59.4595H151.352V64.8649H156.757V59.4595Z" fill="black"/>
<path d="M162.162 59.4595H156.757V64.8649H162.162V59.4595Z" fill="black"/>
<path d="M183.783 59.4595H178.378V64.8649H183.783V59.4595Z" fill="black"/>
<path d="M189.189 59.4595H183.783V64.8649H189.189V59.4595Z" fill="black"/>
<path d="M32.4318 64.8647H27.0264V70.2702H32.4318V64.8647Z" fill="black"/>
<path d="M37.838 64.8647H32.4326V70.2702H37.838V64.8647Z" fill="black"/>
<path d="M48.6486 64.8647H43.2432V70.2702H48.6486V64.8647Z" fill="black"/>
<path d="M64.8644 64.8647H59.459V70.2702H64.8644V64.8647Z" fill="black"/>
<path d="M70.2697 64.8647H64.8643V70.2702H70.2697V64.8647Z" fill="black"/>
<path d="M75.6749 64.8647H70.2695V70.2702H75.6749V64.8647Z" fill="black"/>
<path d="M81.0812 64.8647H75.6758V70.2702H81.0812V64.8647Z" fill="black"/>
<path d="M102.702 64.8647H97.2969V70.2702H102.702V64.8647Z" fill="black"/>
<path d="M108.108 64.8647H102.702V70.2702H108.108V64.8647Z" fill="black"/>
<path d="M118.919 64.8647H113.514V70.2702H118.919V64.8647Z" fill="black"/>
<path d="M124.324 64.8647H118.919V70.2702H124.324V64.8647Z" fill="black"/>
<path d="M129.73 64.8647H124.324V70.2702H129.73V64.8647Z" fill="black"/>
<path d="M135.135 64.8647H129.729V70.2702H135.135V64.8647Z" fill="black"/>
<path d="M145.945 64.8647H140.54V70.2702H145.945V64.8647Z" fill="black"/>
<path d="M151.351 64.8647H145.945V70.2702H151.351V64.8647Z" fill="black"/>
<path d="M156.757 64.8647H151.352V70.2702H156.757V64.8647Z" fill="black"/>
<path d="M162.162 64.8647H156.757V70.2702H162.162V64.8647Z" fill="black"/>
<path d="M167.568 64.8647H162.162V70.2702H167.568V64.8647Z" fill="black"/>
<path d="M178.378 64.8647H172.973V70.2702H178.378V64.8647Z" fill="black"/>
<path d="M189.189 64.8647H183.783V70.2702H189.189V64.8647Z" fill="black"/>
<path d="M21.6212 70.2703H16.2158V75.6757H21.6212V70.2703Z" fill="black"/>
<path d="M37.838 70.2703H32.4326V75.6757H37.838V70.2703Z" fill="black"/>
<path d="M43.2433 70.2703H37.8379V75.6757H43.2433V70.2703Z" fill="black"/>
<path d="M59.4591 70.2703H54.0537V75.6757H59.4591V70.2703Z" fill="black"/>
<path d="M64.8644 70.2703H59.459V75.6757H64.8644V70.2703Z" fill="black"/>
<path d="M75.6749 70.2703H70.2695V75.6757H75.6749V70.2703Z" fill="black"/>
<path d="M81.0812 70.2703H75.6758V75.6757H81.0812V70.2703Z" fill="black"/>
<path d="M91.8917 70.2703H86.4863V75.6757H91.8917V70.2703Z" fill="black"/>
<path d="M108.108 70.2703H102.702V75.6757H108.108V70.2703Z" fill="black"/>
<path d="M140.54 70.2703H135.135V75.6757H140.54V70.2703Z" fill="black"/>
<path d="M145.945 70.2703H140.54V75.6757H145.945V70.2703Z" fill="black"/>
<path d="M151.351 70.2703H145.945V75.6757H151.351V70.2703Z" fill="black"/>
<path d="M167.568 70.2703H162.162V75.6757H167.568V70.2703Z" fill="black"/>
<path d="M172.973 70.2703H167.567V75.6757H172.973V70.2703Z" fill="black"/>
<path d="M183.783 70.2703H178.378V75.6757H183.783V70.2703Z" fill="black"/>
<path d="M21.6212 75.6758H16.2158V81.0812H21.6212V75.6758Z" fill="black"/>
<path d="M27.0265 75.6758H21.6211V81.0812H27.0265V75.6758Z" fill="black"/>
<path d="M32.4318 75.6758H27.0264V81.0812H32.4318V75.6758Z" fill="black"/>
<path d="M43.2433 75.6758H37.8379V81.0812H43.2433V75.6758Z" fill="black"/>
<path d="M48.6486 75.6758H43.2432V81.0812H48.6486V75.6758Z" fill="black"/>
<path d="M54.0538 75.6758H48.6484V81.0812H54.0538V75.6758Z" fill="black"/>
<path d="M59.4591 75.6758H54.0537V81.0812H59.4591V75.6758Z" fill="black"/>
<path d="M64.8644 75.6758H59.459V81.0812H64.8644V75.6758Z" fill="black"/>
<path d="M81.0812 75.6758H75.6758V81.0812H81.0812V75.6758Z" fill="black"/>
<path d="M118.919 75.6758H113.514V81.0812H118.919V75.6758Z" fill="black"/>
<path d="M140.54 75.6758H135.135V81.0812H140.54V75.6758Z" fill="black"/>
<path d="M145.945 75.6758H140.54V81.0812H145.945V75.6758Z" fill="black"/>
<path d="M151.351 75.6758H145.945V81.0812H151.351V75.6758Z" fill="black"/>
<path d="M156.757 75.6758H151.352V81.0812H156.757V75.6758Z" fill="black"/>
<path d="M162.162 75.6758H156.757V81.0812H162.162V75.6758Z" fill="black"/>
<path d="M172.973 75.6758H167.567V81.0812H172.973V75.6758Z" fill="black"/>
<path d="M183.783 75.6758H178.378V81.0812H183.783V75.6758Z" fill="black"/>
<path d="M189.189 75.6758H183.783V81.0812H189.189V75.6758Z" fill="black"/>
<path d="M27.0265 81.0811H21.6211V86.4865H27.0265V81.0811Z" fill="black"/>
<path d="M32.4318 81.0811H27.0264V86.4865H32.4318V81.0811Z" fill="black"/>
<path d="M59.4591 81.0811H54.0537V86.4865H59.4591V81.0811Z" fill="black"/>
<path d="M64.8644 81.0811H59.459V86.4865H64.8644V81.0811Z" fill="black"/>
<path d="M70.2697 81.0811H64.8643V86.4865H70.2697V81.0811Z" fill="black"/>
<path d="M75.6749 81.0811H70.2695V86.4865H75.6749V81.0811Z" fill="black"/>
<path d="M86.4865 81.0811H81.0811V86.4865H86.4865V81.0811Z" fill="black"/>
<path d="M97.297 81.0811H91.8916V86.4865H97.297V81.0811Z" fill="black"/>
<path d="M102.702 81.0811H97.2969V86.4865H102.702V81.0811Z" fill="black"/>
<path d="M129.73 81.0811H124.324V86.4865H129.73V81.0811Z" fill="black"/>
<path d="M135.135 81.0811H129.729V86.4865H135.135V81.0811Z" fill="black"/>
<path d="M140.54 81.0811H135.135V86.4865H140.54V81.0811Z" fill="black"/>
<path d="M151.351 81.0811H145.945V86.4865H151.351V81.0811Z" fill="black"/>
<path d="M156.757 81.0811H151.352V86.4865H156.757V81.0811Z" fill="black"/>
<path d="M167.568 81.0811H162.162V86.4865H167.568V81.0811Z" fill="black"/>
<path d="M183.783 81.0811H178.378V86.4865H183.783V81.0811Z" fill="black"/>
<path d="M189.189 81.0811H183.783V86.4865H189.189V81.0811Z" fill="black"/>
<path d="M16.216 86.4866H10.8105V91.892H16.216V86.4866Z" fill="black"/>
<path d="M32.4318 86.4866H27.0264V91.892H32.4318V86.4866Z" fill="black"/>
<path d="M37.838 86.4866H32.4326V91.892H37.838V86.4866Z" fill="black"/>
<path d="M43.2433 86.4866H37.8379V91.892H43.2433V86.4866Z" fill="black"/>
<path d="M48.6486 86.4866H43.2432V91.892H48.6486V86.4866Z" fill="black"/>
<path d="M64.8644 86.4866H59.459V91.892H64.8644V86.4866Z" fill="black"/>
<path d="M70.2697 86.4866H64.8643V91.892H70.2697V86.4866Z" fill="black"/>
<path d="M81.0812 86.4866H75.6758V91.892H81.0812V86.4866Z" fill="black"/>
<path d="M91.8917 86.4866H86.4863V91.892H91.8917V86.4866Z" fill="black"/>
<path d="M108.108 86.4866H102.702V91.892H108.108V86.4866Z" fill="black"/>
<path d="M124.324 86.4866H118.919V91.892H124.324V86.4866Z" fill="black"/>
<path d="M140.54 86.4866H135.135V91.892H140.54V86.4866Z" fill="black"/>
<path d="M151.351 86.4866H145.945V91.892H151.351V86.4866Z" fill="black"/>
<path d="M156.757 86.4866H151.352V91.892H156.757V86.4866Z" fill="black"/>
<path d="M178.378 86.4866H172.973V91.892H178.378V86.4866Z" fill="black"/>
<path d="M183.783 86.4866H178.378V91.892H183.783V86.4866Z" fill="black"/>
<path d="M16.216 91.8918H10.8105V97.2973H16.216V91.8918Z" fill="black"/>
<path d="M32.4318 91.8918H27.0264V97.2973H32.4318V91.8918Z" fill="black"/>
<path d="M54.0538 91.8918H48.6484V97.2973H54.0538V91.8918Z" fill="black"/>
<path d="M81.0812 91.8918H75.6758V97.2973H81.0812V91.8918Z" fill="black"/>
<path d="M91.8917 91.8918H86.4863V97.2973H91.8917V91.8918Z" fill="black"/>
<path d="M97.297 91.8918H91.8916V97.2973H97.297V91.8918Z" fill="black"/>
<path d="M108.108 91.8918H102.702V97.2973H108.108V91.8918Z" fill="black"/>
<path d="M113.513 91.8918H108.107V97.2973H113.513V91.8918Z" fill="black"/>
<path d="M118.919 91.8918H113.514V97.2973H118.919V91.8918Z" fill="black"/>
<path d="M129.73 91.8918H124.324V97.2973H129.73V91.8918Z" fill="black"/>
<path d="M135.135 91.8918H129.729V97.2973H135.135V91.8918Z" fill="black"/>
<path d="M156.757 91.8918H151.352V97.2973H156.757V91.8918Z" fill="black"/>
<path d="M162.162 91.8918H156.757V97.2973H162.162V91.8918Z" fill="black"/>
<path d="M167.568 91.8918H162.162V97.2973H167.568V91.8918Z" fill="black"/>
<path d="M183.783 91.8918H178.378V97.2973H183.783V91.8918Z" fill="black"/>
<path d="M16.216 97.2974H10.8105V102.703H16.216V97.2974Z" fill="black"/>
<path d="M21.6212 97.2974H16.2158V102.703H21.6212V97.2974Z" fill="black"/>
<path d="M32.4318 97.2974H27.0264V102.703H32.4318V97.2974Z" fill="black"/>
<path d="M37.838 97.2974H32.4326V102.703H37.838V97.2974Z" fill="black"/>
<path d="M43.2433 97.2974H37.8379V102.703H43.2433V97.2974Z" fill="black"/>
<path d="M48.6486 97.2974H43.2432V102.703H48.6486V97.2974Z" fill="black"/>
<path d="M54.0538 97.2974H48.6484V102.703H54.0538V97.2974Z" fill="black"/>
<path d="M59.4591 97.2974H54.0537V102.703H59.4591V97.2974Z" fill="black"/>
<path d="M64.8644 97.2974H59.459V102.703H64.8644V97.2974Z" fill="black"/>
<path d="M81.0812 97.2974H75.6758V102.703H81.0812V97.2974Z" fill="black"/>
<path d="M108.108 97.2974H102.702V102.703H108.108V97.2974Z" fill="black"/>
<path d="M113.513 97.2974H108.107V102.703H113.513V97.2974Z" fill="black"/>
<path d="M118.919 97.2974H113.514V102.703H118.919V97.2974Z" fill="black"/>
<path d="M124.324 97.2974H118.919V102.703H124.324V97.2974Z" fill="black"/>
<path d="M129.73 97.2974H124.324V102.703H129.73V97.2974Z" fill="black"/>
<path d="M135.135 97.2974H129.729V102.703H135.135V97.2974Z" fill="black"/>
<path d="M145.945 97.2974H140.54V102.703H145.945V97.2974Z" fill="black"/>
<path d="M156.757 97.2974H151.352V102.703H156.757V97.2974Z" fill="black"/>
<path d="M167.568 97.2974H162.162V102.703H167.568V97.2974Z" fill="black"/>
<path d="M178.378 97.2974H172.973V102.703H178.378V97.2974Z" fill="black"/>
<path d="M183.783 97.2974H178.378V102.703H183.783V97.2974Z" fill="black"/>
<path d="M21.6212 102.703H16.2158V108.108H21.6212V102.703Z" fill="black"/>
<path d="M32.4318 102.703H27.0264V108.108H32.4318V102.703Z" fill="black"/>
<path d="M43.2433 102.703H37.8379V108.108H43.2433V102.703Z" fill="black"/>
<path d="M54.0538 102.703H48.6484V108.108H54.0538V102.703Z" fill="black"/>
<path d="M59.4591 102.703H54.0537V108.108H59.4591V102.703Z" fill="black"/>
<path d="M70.2697 102.703H64.8643V108.108H70.2697V102.703Z" fill="black"/>
<path d="M81.0812 102.703H75.6758V108.108H81.0812V102.703Z" fill="black"/>
<path d="M86.4865 102.703H81.0811V108.108H86.4865V102.703Z" fill="black"/>
<path d="M102.702 102.703H97.2969V108.108H102.702V102.703Z" fill="black"/>
<path d="M124.324 102.703H118.919V108.108H124.324V102.703Z" fill="black"/>
<path d="M129.73 102.703H124.324V108.108H129.73V102.703Z" fill="black"/>
<path d="M135.135 102.703H129.729V108.108H135.135V102.703Z" fill="black"/>
<path d="M140.54 102.703H135.135V108.108H140.54V102.703Z" fill="black"/>
<path d="M162.162 102.703H156.757V108.108H162.162V102.703Z" fill="black"/>
<path d="M172.973 102.703H167.567V108.108H172.973V102.703Z" fill="black"/>
<path d="M21.6212 108.108H16.2158V113.514H21.6212V108.108Z" fill="black"/>
<path d="M48.6486 108.108H43.2432V113.514H48.6486V108.108Z" fill="black"/>
<path d="M54.0538 108.108H48.6484V113.514H54.0538V108.108Z" fill="black"/>
<path d="M59.4591 108.108H54.0537V113.514H59.4591V108.108Z" fill="black"/>
<path d="M70.2697 108.108H64.8643V113.514H70.2697V108.108Z" fill="black"/>
<path d="M75.6749 108.108H70.2695V113.514H75.6749V108.108Z" fill="black"/>
<path d="M86.4865 108.108H81.0811V113.514H86.4865V108.108Z" fill="black"/>
<path d="M91.8917 108.108H86.4863V113.514H91.8917V108.108Z" fill="black"/>
<path d="M102.702 108.108H97.2969V113.514H102.702V108.108Z" fill="black"/>
<path d="M113.513 108.108H108.107V113.514H113.513V108.108Z" fill="black"/>
<path d="M135.135 108.108H129.729V113.514H135.135V108.108Z" fill="black"/>
<path d="M151.351 108.108H145.945V113.514H151.351V108.108Z" fill="black"/>
<path d="M156.757 108.108H151.352V113.514H156.757V108.108Z" fill="black"/>
<path d="M178.378 108.108H172.973V113.514H178.378V108.108Z" fill="black"/>
<path d="M183.783 108.108H178.378V113.514H183.783V108.108Z" fill="black"/>
<path d="M189.189 108.108H183.783V113.514H189.189V108.108Z" fill="black"/>
<path d="M21.6212 113.513H16.2158V118.919H21.6212V113.513Z" fill="black"/>
<path d="M27.0265 113.513H21.6211V118.919H27.0265V113.513Z" fill="black"/>
<path d="M37.838 113.513H32.4326V118.919H37.838V113.513Z" fill="black"/>
<path d="M43.2433 113.513H37.8379V118.919H43.2433V113.513Z" fill="black"/>
<path d="M54.0538 113.513H48.6484V118.919H54.0538V113.513Z" fill="black"/>
<path d="M64.8644 113.513H59.459V118.919H64.8644V113.513Z" fill="black"/>
<path d="M70.2697 113.513H64.8643V118.919H70.2697V113.513Z" fill="black"/>
<path d="M81.0812 113.513H75.6758V118.919H81.0812V113.513Z" fill="black"/>
<path d="M97.297 113.513H91.8916V118.919H97.297V113.513Z" fill="black"/>
<path d="M108.108 113.513H102.702V118.919H108.108V113.513Z" fill="black"/>
<path d="M113.513 113.513H108.107V118.919H113.513V113.513Z" fill="black"/>
<path d="M124.324 113.513H118.919V118.919H124.324V113.513Z" fill="black"/>
<path d="M129.73 113.513H124.324V118.919H129.73V113.513Z" fill="black"/>
<path d="M145.945 113.513H140.54V118.919H145.945V113.513Z" fill="black"/>
<path d="M151.351 113.513H145.945V118.919H151.351V113.513Z" fill="black"/>
<path d="M162.162 113.513H156.757V118.919H162.162V113.513Z" fill="black"/>
<path d="M183.783 113.513H178.378V118.919H183.783V113.513Z" fill="black"/>
<path d="M16.216 118.919H10.8105V124.324H16.216V118.919Z" fill="black"/>
<path d="M48.6486 118.919H43.2432V124.324H48.6486V118.919Z" fill="black"/>
<path d="M59.4591 118.919H54.0537V124.324H59.4591V118.919Z" fill="black"/>
<path d="M81.0812 118.919H75.6758V124.324H81.0812V118.919Z" fill="black"/>
<path d="M86.4865 118.919H81.0811V124.324H86.4865V118.919Z" fill="black"/>
<path d="M102.702 118.919H97.2969V124.324H102.702V118.919Z" fill="black"/>
<path d="M108.108 118.919H102.702V124.324H108.108V118.919Z" fill="black"/>
<path d="M113.513 118.919H108.107V124.324H113.513V118.919Z" fill="black"/>
<path d="M135.135 118.919H129.729V124.324H135.135V118.919Z" fill="black"/>
<path d="M140.54 118.919H135.135V124.324H140.54V118.919Z" fill="black"/>
<path d="M145.945 118.919H140.54V124.324H145.945V118.919Z" fill="black"/>
<path d="M151.351 118.919H145.945V124.324H151.351V118.919Z" fill="black"/>
<path d="M167.568 118.919H162.162V124.324H167.568V118.919Z" fill="black"/>
<path d="M183.783 118.919H178.378V124.324H183.783V118.919Z" fill="black"/>
<path d="M189.189 118.919H183.783V124.324H189.189V118.919Z" fill="black"/>
<path d="M27.0265 124.324H21.6211V129.73H27.0265V124.324Z" fill="black"/>
<path d="M43.2433 124.324H37.8379V129.73H43.2433V124.324Z" fill="black"/>
<path d="M64.8644 124.324H59.459V129.73H64.8644V124.324Z" fill="black"/>
<path d="M70.2697 124.324H64.8643V129.73H70.2697V124.324Z" fill="black"/>
<path d="M81.0812 124.324H75.6758V129.73H81.0812V124.324Z" fill="black"/>
<path d="M91.8917 124.324H86.4863V129.73H91.8917V124.324Z" fill="black"/>
<path d="M97.297 124.324H91.8916V129.73H97.297V124.324Z" fill="black"/>
<path d="M102.702 124.324H97.2969V129.73H102.702V124.324Z" fill="black"/>
<path d="M113.513 124.324H108.107V129.73H113.513V124.324Z" fill="black"/>
<path d="M118.919 124.324H113.514V129.73H118.919V124.324Z" fill="black"/>
<path d="M124.324 124.324H118.919V129.73H124.324V124.324Z" fill="black"/>
<path d="M129.73 124.324H124.324V129.73H129.73V124.324Z" fill="black"/>
<path d="M135.135 124.324H129.729V129.73H135.135V124.324Z" fill="black"/>
<path d="M145.945 124.324H140.54V129.73H145.945V124.324Z" fill="black"/>
<path d="M151.351 124.324H145.945V129.73H151.351V124.324Z" fill="black"/>
<path d="M178.378 124.324H172.973V129.73H178.378V124.324Z" fill="black"/>
<path d="M183.783 124.324H178.378V129.73H183.783V124.324Z" fill="black"/>
<path d="M189.189 124.324H183.783V129.73H189.189V124.324Z" fill="black"/>
<path d="M16.216 129.73H10.8105V135.135H16.216V129.73Z" fill="black"/>
<path d="M21.6212 129.73H16.2158V135.135H21.6212V129.73Z" fill="black"/>
<path d="M32.4318 129.73H27.0264V135.135H32.4318V129.73Z" fill="black"/>
<path d="M48.6486 129.73H43.2432V135.135H48.6486V129.73Z" fill="black"/>
<path d="M59.4591 129.73H54.0537V135.135H59.4591V129.73Z" fill="black"/>
<path d="M64.8644 129.73H59.459V135.135H64.8644V129.73Z" fill="black"/>
<path d="M70.2697 129.73H64.8643V135.135H70.2697V129.73Z" fill="black"/>
<path d="M75.6749 129.73H70.2695V135.135H75.6749V129.73Z" fill="black"/>
<path d="M86.4865 129.73H81.0811V135.135H86.4865V129.73Z" fill="black"/>
<path d="M97.297 129.73H91.8916V135.135H97.297V129.73Z" fill="black"/>
<path d="M108.108 129.73H102.702V135.135H108.108V129.73Z" fill="black"/>
<path d="M124.324 129.73H118.919V135.135H124.324V129.73Z" fill="black"/>
<path d="M135.135 129.73H129.729V135.135H135.135V129.73Z" fill="black"/>
<path d="M145.945 129.73H140.54V135.135H145.945V129.73Z" fill="black"/>
<path d="M156.757 129.73H151.352V135.135H156.757V129.73Z" fill="black"/>
<path d="M167.568 129.73H162.162V135.135H167.568V129.73Z" fill="black"/>
<path d="M189.189 129.73H183.783V135.135H189.189V129.73Z" fill="black"/>
<path d="M21.6212 135.135H16.2158V140.54H21.6212V135.135Z" fill="black"/>
<path d="M27.0265 135.135H21.6211V140.54H27.0265V135.135Z" fill="black"/>
<path d="M32.4318 135.135H27.0264V140.54H32.4318V135.135Z" fill="black"/>
<path d="M54.0538 135.135H48.6484V140.54H54.0538V135.135Z" fill="black"/>
<path d="M59.4591 135.135H54.0537V140.54H59.4591V135.135Z" fill="black"/>
<path d="M91.8917 135.135H86.4863V140.54H91.8917V135.135Z" fill="black"/>
<path d="M102.702 135.135H97.2969V140.54H102.702V135.135Z" fill="black"/>
<path d="M113.513 135.135H108.107V140.54H113.513V135.135Z" fill="black"/>
<path d="M129.73 135.135H124.324V140.54H129.73V135.135Z" fill="black"/>
<path d="M145.945 135.135H140.54V140.54H145.945V135.135Z" fill="black"/>
<path d="M162.162 135.135H156.757V140.54H162.162V135.135Z" fill="black"/>
<path d="M172.973 135.135H167.567V140.54H172.973V135.135Z" fill="black"/>
<path d="M16.216 140.541H10.8105V145.946H16.216V140.541Z" fill="black"/>
<path d="M27.0265 140.541H21.6211V145.946H27.0265V140.541Z" fill="black"/>
<path d="M48.6486 140.541H43.2432V145.946H48.6486V140.541Z" fill="black"/>
<path d="M54.0538 140.541H48.6484V145.946H54.0538V140.541Z" fill="black"/>
<path d="M91.8917 140.541H86.4863V145.946H91.8917V140.541Z" fill="black"/>
<path d="M97.297 140.541H91.8916V145.946H97.297V140.541Z" fill="black"/>
<path d="M108.108 140.541H102.702V145.946H108.108V140.541Z" fill="black"/>
<path d="M118.919 140.541H113.514V145.946H118.919V140.541Z" fill="black"/>
<path d="M124.324 140.541H118.919V145.946H124.324V140.541Z" fill="black"/>
<path d="M129.73 140.541H124.324V145.946H129.73V140.541Z" fill="black"/>
<path d="M140.54 140.541H135.135V145.946H140.54V140.541Z" fill="black"/>
<path d="M145.945 140.541H140.54V145.946H145.945V140.541Z" fill="black"/>
<path d="M151.351 140.541H145.945V145.946H151.351V140.541Z" fill="black"/>
<path d="M156.757 140.541H151.352V145.946H156.757V140.541Z" fill="black"/>
<path d="M162.162 140.541H156.757V145.946H162.162V140.541Z" fill="black"/>
<path d="M167.568 140.541H162.162V145.946H167.568V140.541Z" fill="black"/>
<path d="M172.973 140.541H167.567V145.946H172.973V140.541Z" fill="black"/>
<path d="M178.378 140.541H172.973V145.946H178.378V140.541Z" fill="black"/>
<path d="M59.4591 145.946H54.0537V151.351H59.4591V145.946Z" fill="black"/>
<path d="M81.0812 145.946H75.6758V151.351H81.0812V145.946Z" fill="black"/>
<path d="M86.4865 145.946H81.0811V151.351H86.4865V145.946Z" fill="black"/>
<path d="M113.513 145.946H108.107V151.351H113.513V145.946Z" fill="black"/>
<path d="M118.919 145.946H113.514V151.351H118.919V145.946Z" fill="black"/>
<path d="M124.324 145.946H118.919V151.351H124.324V145.946Z" fill="black"/>
<path d="M145.945 145.946H140.54V151.351H145.945V145.946Z" fill="black"/>
<path d="M167.568 145.946H162.162V151.351H167.568V145.946Z" fill="black"/>
<path d="M172.973 145.946H167.567V151.351H172.973V145.946Z" fill="black"/>
<path d="M183.783 145.946H178.378V151.351H183.783V145.946Z" fill="black"/>
<path d="M189.189 145.946H183.783V151.351H189.189V145.946Z" fill="black"/>
<path d="M64.8644 151.351H59.459V156.757H64.8644V151.351Z" fill="black"/>
<path d="M81.0812 151.351H75.6758V156.757H81.0812V151.351Z" fill="black"/>
<path d="M91.8917 151.351H86.4863V156.757H91.8917V151.351Z" fill="black"/>
<path d="M129.73 151.351H124.324V156.757H129.73V151.351Z" fill="black"/>
<path d="M145.945 151.351H140.54V156.757H145.945V151.351Z" fill="black"/>
<path d="M156.757 151.351H151.352V156.757H156.757V151.351Z" fill="black"/>
<path d="M167.568 151.351H162.162V156.757H167.568V151.351Z" fill="black"/>
<path d="M172.973 151.351H167.567V156.757H172.973V151.351Z" fill="black"/>
<path d="M178.378 151.351H172.973V156.757H178.378V151.351Z" fill="black"/>
<path d="M59.4591 156.757H54.0537V162.162H59.4591V156.757Z" fill="black"/>
<path d="M70.2697 156.757H64.8643V162.162H70.2697V156.757Z" fill="black"/>
<path d="M75.6749 156.757H70.2695V162.162H75.6749V156.757Z" fill="black"/>
<path d="M86.4865 156.757H81.0811V162.162H86.4865V156.757Z" fill="black"/>
<path d="M91.8917 156.757H86.4863V162.162H91.8917V156.757Z" fill="black"/>
<path d="M97.297 156.757H91.8916V162.162H97.297V156.757Z" fill="black"/>
<path d="M145.945 156.757H140.54V162.162H145.945V156.757Z" fill="black"/>
<path d="M167.568 156.757H162.162V162.162H167.568V156.757Z" fill="black"/>
<path d="M183.783 156.757H178.378V162.162H183.783V156.757Z" fill="black"/>
<path d="M189.189 156.757H183.783V162.162H189.189V156.757Z" fill="black"/>
<path d="M75.6749 162.162H70.2695V167.568H75.6749V162.162Z" fill="black"/>
<path d="M86.4865 162.162H81.0811V167.568H86.4865V162.162Z" fill="black"/>
<path d="M91.8917 162.162H86.4863V167.568H91.8917V162.162Z" fill="black"/>
<path d="M102.702 162.162H97.2969V167.568H102.702V162.162Z" fill="black"/>
<path d="M118.919 162.162H113.514V167.568H118.919V162.162Z" fill="black"/>
<path d="M135.135 162.162H129.729V167.568H135.135V162.162Z" fill="black"/>
<path d="M145.945 162.162H140.54V167.568H145.945V162.162Z" fill="black"/>
<path d="M151.351 162.162H145.945V167.568H151.351V162.162Z" fill="black"/>
<path d="M156.757 162.162H151.352V167.568H156.757V162.162Z" fill="black"/>
<path d="M162.162 162.162H156.757V167.568H162.162V162.162Z" fill="black"/>
<path d="M167.568 162.162H162.162V167.568H167.568V162.162Z" fill="black"/>
<path d="M172.973 162.162H167.567V167.568H172.973V162.162Z" fill="black"/>
<path d="M189.189 162.162H183.783V167.568H189.189V162.162Z" fill="black"/>
<path d="M59.4591 167.568H54.0537V172.973H59.4591V167.568Z" fill="black"/>
<path d="M81.0812 167.568H75.6758V172.973H81.0812V167.568Z" fill="black"/>
<path d="M86.4865 167.568H81.0811V172.973H86.4865V167.568Z" fill="black"/>
<path d="M97.297 167.568H91.8916V172.973H97.297V167.568Z" fill="black"/>
<path d="M118.919 167.568H113.514V172.973H118.919V167.568Z" fill="black"/>
<path d="M124.324 167.568H118.919V172.973H124.324V167.568Z" fill="black"/>
<path d="M129.73 167.568H124.324V172.973H129.73V167.568Z" fill="black"/>
<path d="M140.54 167.568H135.135V172.973H140.54V167.568Z" fill="black"/>
<path d="M145.945 167.568H140.54V172.973H145.945V167.568Z" fill="black"/>
<path d="M156.757 167.568H151.352V172.973H156.757V167.568Z" fill="black"/>
<path d="M167.568 167.568H162.162V172.973H167.568V167.568Z" fill="black"/>
<path d="M178.378 167.568H172.973V172.973H178.378V167.568Z" fill="black"/>
<path d="M183.783 167.568H178.378V172.973H183.783V167.568Z" fill="black"/>
<path d="M75.6749 172.973H70.2695V178.378H75.6749V172.973Z" fill="black"/>
<path d="M81.0812 172.973H75.6758V178.378H81.0812V172.973Z" fill="black"/>
<path d="M108.108 172.973H102.702V178.378H108.108V172.973Z" fill="black"/>
<path d="M140.54 172.973H135.135V178.378H140.54V172.973Z" fill="black"/>
<path d="M145.945 172.973H140.54V178.378H145.945V172.973Z" fill="black"/>
<path d="M151.351 172.973H145.945V178.378H151.351V172.973Z" fill="black"/>
<path d="M167.568 172.973H162.162V178.378H167.568V172.973Z" fill="black"/>
<path d="M172.973 172.973H167.567V178.378H172.973V172.973Z" fill="black"/>
<path d="M178.378 172.973H172.973V178.378H178.378V172.973Z" fill="black"/>
<path d="M189.189 172.973H183.783V178.378H189.189V172.973Z" fill="black"/>
<path d="M75.6749 178.378H70.2695V183.784H75.6749V178.378Z" fill="black"/>
<path d="M81.0812 178.378H75.6758V183.784H81.0812V178.378Z" fill="black"/>
<path d="M86.4865 178.378H81.0811V183.784H86.4865V178.378Z" fill="black"/>
<path d="M97.297 178.378H91.8916V183.784H97.297V178.378Z" fill="black"/>
<path d="M102.702 178.378H97.2969V183.784H102.702V178.378Z" fill="black"/>
<path d="M108.108 178.378H102.702V183.784H108.108V178.378Z" fill="black"/>
<path d="M113.513 178.378H108.107V183.784H113.513V178.378Z" fill="black"/>
<path d="M129.73 178.378H124.324V183.784H129.73V178.378Z" fill="black"/>
<path d="M140.54 178.378H135.135V183.784H140.54V178.378Z" fill="black"/>
<path d="M151.351 178.378H145.945V183.784H151.351V178.378Z" fill="black"/>
<path d="M59.4591 183.784H54.0537V189.189H59.4591V183.784Z" fill="black"/>
<path d="M86.4865 183.784H81.0811V189.189H86.4865V183.784Z" fill="black"/>
<path d="M91.8917 183.784H86.4863V189.189H91.8917V183.784Z" fill="black"/>
<path d="M102.702 183.784H97.2969V189.189H102.702V183.784Z" fill="black"/>
<path d="M129.73 183.784H124.324V189.189H129.73V183.784Z" fill="black"/>
<path d="M145.945 183.784H140.54V189.189H145.945V183.784Z" fill="black"/>
<path d="M156.757 183.784H151.352V189.189H156.757V183.784Z" fill="black"/>
<path d="M167.568 183.784H162.162V189.189H167.568V183.784Z" fill="black"/>
<path d="M183.783 183.784H178.378V189.189H183.783V183.784Z" fill="black"/>
<path d="M42.9727 10.8108H16.4862H10.8105V16.4865V42.973V48.6486H16.4862H42.9727H48.6484V42.973V16.4865V10.8108H42.9727ZM42.9727 42.973H16.4862V16.4865H42.9727V42.973Z" fill="black"/>
<path d="M183.514 10.8108H157.027H151.352V16.4865V42.973V48.6486H157.027H183.514H189.189V42.973V16.4865V10.8108H183.514ZM183.514 42.973H157.027V16.4865H183.514V42.973Z" fill="black"/>
<path d="M42.9727 151.351H16.4862H10.8105V157.027V183.513V189.189H16.4862H42.9727H48.6484V183.513V157.027V151.351H42.9727ZM42.9727 183.513H16.4862V157.027H42.9727V183.513Z" fill="black"/>
<path d="M37.8373 21.6216H21.6211V37.8378H37.8373V21.6216Z" fill="black"/>
<path d="M178.378 21.6216H162.162V37.8378H178.378V21.6216Z" fill="black"/>
<path d="M37.8373 162.162H21.6211V178.378H37.8373V162.162Z" fill="black"/>
</svg>
